<?xml version="1.0" encoding="UTF-8" standalone="no"?><svg xmlns="http://www.w3.org/2000/svg" xmlns:xlink="http://www.w3.org/1999/xlink" contentScriptType="application/ecmascript" contentStyleType="text/css" height="626px" preserveAspectRatio="none" style="width:890px;height:626px;" version="1.1" viewBox="0 0 890 626" width="890px" zoomAndPan="magnify"><defs><filter height="300%" id="f5udieo" width="300%" x="-1" y="-1"><feGaussianBlur result="blurOut" stdDeviation="2.0"/><feColorMatrix in="blurOut" result="blurOut2" type="matrix" values="0 0 0 0 0 0 0 0 0 0 0 0 0 0 0 0 0 0 .4 0"/><feOffset dx="4.0" dy="4.0" in="blurOut2" result="blurOut3"/><feBlend in="SourceGraphic" in2="blurOut3" mode="normal"/></filter></defs><g><rect fill="#FFFFFF" filter="url(#f5udieo)" height="429.9922" style="stroke: #A80036; stroke-width: 1.0;" width="10" x="61" y="118.7266"/><rect fill="#FFFFFF" filter="url(#f5udieo)" height="64.2656" style="stroke: #A80036; stroke-width: 1.0;" width="10" x="260" y="118.7266"/><rect fill="#FFFFFF" filter="url(#f5udieo)" height="384.7266" style="stroke: #A80036; stroke-width: 1.0;" width="10" x="418" y="147.8594"/><rect fill="#FFFFFF" filter="url(#f5udieo)" height="209.9297" style="stroke: #A80036; stroke-width: 1.0;" width="10" x="541" y="322.6563"/><rect fill="#FFFFFF" filter="url(#f5udieo)" height="137.6641" style="stroke: #A80036; stroke-width: 1.0;" width="10" x="546" y="359.7891"/><rect fill="#FFFFFF" filter="url(#f5udieo)" height="103.5313" style="stroke: #A80036; stroke-width: 1.0;" width="10" x="664" y="393.9219"/><rect fill="#DDDDDD" height="621.3125" style="stroke: #A80036; stroke-width: 1.0;" width="725.5" x="4" y="4"/><text fill="#000000" font-family="sans-serif" font-size="13" font-weight="bold" lengthAdjust="spacingAndGlyphs" textLength="94" x="319.75" y="16.0669">wsclient-app</text><line style="stroke: #A80036; stroke-width: 1.0; stroke-dasharray: 5.0,5.0;" x1="66" x2="66" y1="87.7266" y2="557.7188"/><line style="stroke: #A80036; stroke-width: 1.0; stroke-dasharray: 5.0,5.0;" x1="264.5" x2="264.5" y1="87.7266" y2="557.7188"/><line style="stroke: #A80036; stroke-width: 1.0; stroke-dasharray: 5.0,5.0;" x1="422.5" x2="422.5" y1="87.7266" y2="557.7188"/><line style="stroke: #A80036; stroke-width: 1.0; stroke-dasharray: 5.0,5.0;" x1="545.5" x2="545.5" y1="87.7266" y2="557.7188"/><line style="stroke: #A80036; stroke-width: 1.0; stroke-dasharray: 5.0,5.0;" x1="668.5" x2="668.5" y1="87.7266" y2="557.7188"/><line style="stroke: #A80036; stroke-width: 1.0; stroke-dasharray: 5.0,5.0;" x1="808.5" x2="808.5" y1="87.7266" y2="557.7188"/><text fill="#000000" font-family="sans-serif" font-size="14" font-style="italic" lengthAdjust="spacingAndGlyphs" textLength="110" x="8" y="69.1328">«Singleton EJB»</text><text fill="#000000" font-family="sans-serif" font-size="14" lengthAdjust="spacingAndGlyphs" textLength="63" x="31.5" y="85.4297">CallTimer</text><ellipse cx="66" cy="39.1328" fill="#FEFECE" filter="url(#f5udieo)" rx="12" ry="12" style="stroke: #A80036; stroke-width: 2.0;"/><polygon fill="#A80036" points="62,27.1328,68,22.1328,66,27.1328,68,32.1328,62,27.1328" style="stroke: #A80036; stroke-width: 1.0;"/><text fill="#000000" font-family="sans-serif" font-size="14" font-style="italic" lengthAdjust="spacingAndGlyphs" textLength="110" x="8" y="570.7188">«Singleton EJB»</text><text fill="#000000" font-family="sans-serif" font-size="14" lengthAdjust="spacingAndGlyphs" textLength="63" x="31.5" y="587.0156">CallTimer</text><ellipse cx="66" cy="605.3125" fill="#FEFECE" filter="url(#f5udieo)" rx="12" ry="12" style="stroke: #A80036; stroke-width: 2.0;"/><polygon fill="#A80036" points="62,593.3125,68,588.3125,66,593.3125,68,598.3125,62,593.3125" style="stroke: #A80036; stroke-width: 1.0;"/><text fill="#000000" font-family="sans-serif" font-size="14" font-style="italic" lengthAdjust="spacingAndGlyphs" textLength="155" x="184.5" y="69.1328">«Container Resource»</text><text fill="#000000" font-family="sans-serif" font-size="14" lengthAdjust="spacingAndGlyphs" textLength="89" x="217.5" y="85.4297">TimerService</text><ellipse cx="265" cy="39.1328" fill="#FEFECE" filter="url(#f5udieo)" rx="12" ry="12" style="stroke: #A80036; stroke-width: 2.0;"/><polygon fill="#A80036" points="261,27.1328,267,22.1328,265,27.1328,267,32.1328,261,27.1328" style="stroke: #A80036; stroke-width: 1.0;"/><text fill="#000000" font-family="sans-serif" font-size="14" font-style="italic" lengthAdjust="spacingAndGlyphs" textLength="155" x="184.5" y="570.7188">«Container Resource»</text><text fill="#000000" font-family="sans-serif" font-size="14" lengthAdjust="spacingAndGlyphs" textLength="89" x="217.5" y="587.0156">TimerService</text><ellipse cx="265" cy="605.3125" fill="#FEFECE" filter="url(#f5udieo)" rx="12" ry="12" style="stroke: #A80036; stroke-width: 2.0;"/><polygon fill="#A80036" points="261,593.3125,267,588.3125,265,593.3125,267,598.3125,261,593.3125" style="stroke: #A80036; stroke-width: 1.0;"/><text fill="#000000" font-family="sans-serif" font-size="14" font-style="italic" lengthAdjust="spacingAndGlyphs" textLength="107" x="366.5" y="69.1328">«Stateless EJB»</text><text fill="#000000" font-family="sans-serif" font-size="14" lengthAdjust="spacingAndGlyphs" textLength="71" x="384.5" y="85.4297">TwitterCall</text><ellipse cx="423" cy="39.1328" fill="#FEFECE" filter="url(#f5udieo)" rx="12" ry="12" style="stroke: #A80036; stroke-width: 2.0;"/><polygon fill="#A80036" points="419,27.1328,425,22.1328,423,27.1328,425,32.1328,419,27.1328" style="stroke: #A80036; stroke-width: 1.0;"/><text fill="#000000" font-family="sans-serif" font-size="14" font-style="italic" lengthAdjust="spacingAndGlyphs" textLength="107" x="366.5" y="570.7188">«Stateless EJB»</text><text fill="#000000" font-family="sans-serif" font-size="14" lengthAdjust="spacingAndGlyphs" textLength="71" x="384.5" y="587.0156">TwitterCall</text><ellipse cx="423" cy="605.3125" fill="#FEFECE" filter="url(#f5udieo)" rx="12" ry="12" style="stroke: #A80036; stroke-width: 2.0;"/><polygon fill="#A80036" points="419,593.3125,425,588.3125,423,593.3125,425,598.3125,419,593.3125" style="stroke: #A80036; stroke-width: 1.0;"/><text fill="#000000" font-family="sans-serif" font-size="14" font-style="italic" lengthAdjust="spacingAndGlyphs" textLength="107" x="489.5" y="69.1328">«Stateless EJB»</text><text fill="#000000" font-family="sans-serif" font-size="14" lengthAdjust="spacingAndGlyphs" textLength="60" x="513" y="85.4297">FileStore</text><ellipse cx="546" cy="39.1328" fill="#FEFECE" filter="url(#f5udieo)" rx="12" ry="12" style="stroke: #A80036; stroke-width: 2.0;"/><polygon fill="#A80036" points="542,27.1328,548,22.1328,546,27.1328,548,32.1328,542,27.1328" style="stroke: #A80036; stroke-width: 1.0;"/><text fill="#000000" font-family="sans-serif" font-size="14" font-style="italic" lengthAdjust="spacingAndGlyphs" textLength="107" x="489.5" y="570.7188">«Stateless EJB»</text><text fill="#000000" font-family="sans-serif" font-size="14" lengthAdjust="spacingAndGlyphs" textLength="60" x="513" y="587.0156">FileStore</text><ellipse cx="546" cy="605.3125" fill="#FEFECE" filter="url(#f5udieo)" rx="12" ry="12" style="stroke: #A80036; stroke-width: 2.0;"/><polygon fill="#A80036" points="542,593.3125,548,588.3125,546,593.3125,548,598.3125,542,593.3125" style="stroke: #A80036; stroke-width: 1.0;"/><text fill="#000000" font-family="sans-serif" font-size="14" font-style="italic" lengthAdjust="spacingAndGlyphs" textLength="107" x="612.5" y="69.1328">«Stateless EJB»</text><text fill="#000000" font-family="sans-serif" font-size="14" lengthAdjust="spacingAndGlyphs" textLength="86" x="623" y="85.4297">MsGraphCall</text><ellipse cx="669" cy="39.1328" fill="#FEFECE" filter="url(#f5udieo)" rx="12" ry="12" style="stroke: #A80036; stroke-width: 2.0;"/><polygon fill="#A80036" points="665,27.1328,671,22.1328,669,27.1328,671,32.1328,665,27.1328" style="stroke: #A80036; stroke-width: 1.0;"/><text fill="#000000" font-family="sans-serif" font-size="14" font-style="italic" lengthAdjust="spacingAndGlyphs" textLength="107" x="612.5" y="570.7188">«Stateless EJB»</text><text fill="#000000" font-family="sans-serif" font-size="14" lengthAdjust="spacingAndGlyphs" textLength="86" x="623" y="587.0156">MsGraphCall</text><ellipse cx="669" cy="605.3125" fill="#FEFECE" filter="url(#f5udieo)" rx="12" ry="12" style="stroke: #A80036; stroke-width: 2.0;"/><polygon fill="#A80036" points="665,593.3125,671,588.3125,669,593.3125,671,598.3125,665,593.3125" style="stroke: #A80036; stroke-width: 1.0;"/><rect fill="#FEFECE" filter="url(#f5udieo)" height="46.5938" style="stroke: #A80036; stroke-width: 1.5;" width="139" x="739.5" y="32.1328"/><rect fill="#FEFECE" filter="url(#f5udieo)" height="46.5938" style="stroke: #A80036; stroke-width: 1.5;" width="139" x="735.5" y="36.1328"/><text fill="#000000" font-family="sans-serif" font-size="14" font-style="italic" lengthAdjust="spacingAndGlyphs" textLength="125" x="742.5" y="57.1328">«HTTP Resource»</text><text fill="#000000" font-family="sans-serif" font-size="14" lengthAdjust="spacingAndGlyphs" textLength="74" x="768" y="73.4297">Public APIs</text><rect fill="#FEFECE" filter="url(#f5udieo)" height="46.5938" style="stroke: #A80036; stroke-width: 1.5;" width="139" x="739.5" y="556.7188"/><rect fill="#FEFECE" filter="url(#f5udieo)" height="46.5938" style="stroke: #A80036; stroke-width: 1.5;" width="139" x="735.5" y="560.7188"/><text fill="#000000" font-family="sans-serif" font-size="14" font-style="italic" lengthAdjust="spacingAndGlyphs" textLength="125" x="742.5" y="581.7188">«HTTP Resource»</text><text fill="#000000" font-family="sans-serif" font-size="14" lengthAdjust="spacingAndGlyphs" textLength="74" x="768" y="598.0156">Public APIs</text><rect fill="#FFFFFF" filter="url(#f5udieo)" height="429.9922" style="stroke: #A80036; stroke-width: 1.0;" width="10" x="61" y="118.7266"/><rect fill="#FFFFFF" filter="url(#f5udieo)" height="64.2656" style="stroke: #A80036; stroke-width: 1.0;" width="10" x="260" y="118.7266"/><rect fill="#FFFFFF" filter="url(#f5udieo)" height="384.7266" style="stroke: #A80036; stroke-width: 1.0;" width="10" x="418" y="147.8594"/><rect fill="#FFFFFF" filter="url(#f5udieo)" height="209.9297" style="stroke: #A80036; stroke-width: 1.0;" width="10" x="541" y="322.6563"/><rect fill="#FFFFFF" filter="url(#f5udieo)" height="137.6641" style="stroke: #A80036; stroke-width: 1.0;" width="10" x="546" y="359.7891"/><rect fill="#FFFFFF" filter="url(#f5udieo)" height="103.5313" style="stroke: #A80036; stroke-width: 1.0;" width="10" x="664" y="393.9219"/><polygon fill="#A80036" points="248,114.7266,258,118.7266,248,122.7266,252,118.7266" style="stroke: #A80036; stroke-width: 1.0;"/><line style="stroke: #A80036; stroke-width: 1.0;" x1="71" x2="254" y1="118.7266" y2="118.7266"/><text fill="#000000" font-family="sans-serif" font-size="13" lengthAdjust="spacingAndGlyphs" textLength="175" x="78" y="113.7935">@PostConstruct start timer</text><polygon fill="#A80036" points="406,143.8594,416,147.8594,406,151.8594,410,147.8594" style="stroke: #A80036; stroke-width: 1.0;"/><line style="stroke: #A80036; stroke-width: 1.0; stroke-dasharray: 2.0,2.0;" x1="270" x2="412" y1="147.8594" y2="147.8594"/><text fill="#000000" font-family="sans-serif" font-size="13" lengthAdjust="spacingAndGlyphs" textLength="129" x="277" y="142.9263">@Timeout fire event</text><line style="stroke: #A80036; stroke-width: 1.0;" x1="270" x2="312" y1="182.125" y2="182.125"/><line style="stroke: #A80036; stroke-width: 1.0;" x1="312" x2="312" y1="182.125" y2="195.125"/><line style="stroke: #A80036; stroke-width: 1.0;" x1="265" x2="312" y1="195.125" y2="195.125"/><polygon fill="#A80036" points="275,191.125,265,195.125,275,199.125,271,195.125" style="stroke: #A80036; stroke-width: 1.0;"/><text fill="#000000" font-family="sans-serif" font-size="13" lengthAdjust="spacingAndGlyphs" textLength="97" x="277" y="177.0591">next @Timeout</text><polygon fill="#A80036" points="875.5,215.125,885.5,219.125,875.5,223.125,879.5,219.125" style="stroke: #A80036; stroke-width: 1.0;"/><line style="stroke: #A80036; stroke-width: 1.0;" x1="428" x2="881.5" y1="219.125" y2="219.125"/><text fill="#000000" font-family="sans-serif" font-size="13" lengthAdjust="spacingAndGlyphs" textLength="96" x="435" y="214.1919">&lt;&lt;Request&gt;&gt;</text><rect fill="#FFFFFF" filter="url(#f5udieo)" height="40.2656" style="stroke: #000000; stroke-width: 2.0;" width="149" x="732.5" y="227.2578"/><polygon fill="#EEEEEE" points="732.5,227.2578,798.5,227.2578,798.5,234.2578,788.5,244.2578,732.5,244.2578,732.5,227.2578" style="stroke: #000000; stroke-width: 2.0;"/><text fill="#000000" font-family="sans-serif" font-size="13" font-weight="bold" lengthAdjust="spacingAndGlyphs" textLength="21" x="745.5" y="241.3247">ref</text><text fill="#000000" font-family="sans-serif" font-size="13" lengthAdjust="spacingAndGlyphs" textLength="66" x="776" y="260.3247">Twitter API</text><polygon fill="#A80036" points="439,289.5234,429,293.5234,439,297.5234,435,293.5234" style="stroke: #A80036; stroke-width: 1.0;"/><line style="stroke: #A80036; stroke-width: 1.0;" x1="433" x2="886.5" y1="293.5234" y2="293.5234"/><text fill="#000000" font-family="sans-serif" font-size="13" lengthAdjust="spacingAndGlyphs" textLength="106" x="445" y="288.5903">&lt;&lt;Response&gt;&gt;</text><polygon fill="#A80036" points="529,318.6563,539,322.6563,529,326.6563,533,322.6563" style="stroke: #A80036; stroke-width: 1.0;"/><line style="stroke: #A80036; stroke-width: 1.0;" x1="428" x2="535" y1="322.6563" y2="322.6563"/><text fill="#000000" font-family="sans-serif" font-size="13" lengthAdjust="spacingAndGlyphs" textLength="69" x="435" y="317.7231">store JSON</text><line style="stroke: #A80036; stroke-width: 1.0;" x1="551" x2="598" y1="346.9219" y2="346.9219"/><line style="stroke: #A80036; stroke-width: 1.0;" x1="598" x2="598" y1="346.9219" y2="359.9219"/><line style="stroke: #A80036; stroke-width: 1.0;" x1="557" x2="598" y1="359.9219" y2="359.9219"/><polygon fill="#A80036" points="567,355.9219,557,359.9219,567,363.9219,563,359.9219" style="stroke: #A80036; stroke-width: 1.0;"/><text fill="#000000" font-family="sans-serif" font-size="13" lengthAdjust="spacingAndGlyphs" textLength="88" x="563" y="341.856">create ZIP file</text><polygon fill="#A80036" points="652,389.9219,662,393.9219,652,397.9219,656,393.9219" style="stroke: #A80036; stroke-width: 1.0;"/><line style="stroke: #A80036; stroke-width: 1.0;" x1="556" x2="658" y1="393.9219" y2="393.9219"/><text fill="#000000" font-family="sans-serif" font-size="13" lengthAdjust="spacingAndGlyphs" textLength="43" x="563" y="388.9888">upload</text><polygon fill="#A80036" points="875.5,419.0547,885.5,423.0547,875.5,427.0547,879.5,423.0547" style="stroke: #A80036; stroke-width: 1.0;"/><line style="stroke: #A80036; stroke-width: 1.0;" x1="674" x2="881.5" y1="423.0547" y2="423.0547"/><text fill="#000000" font-family="sans-serif" font-size="13" lengthAdjust="spacingAndGlyphs" textLength="96" x="681" y="418.1216">&lt;&lt;Request&gt;&gt;</text><rect fill="#FFFFFF" filter="url(#f5udieo)" height="40.2656" style="stroke: #000000; stroke-width: 2.0;" width="149" x="732.5" y="431.1875"/><polygon fill="#EEEEEE" points="732.5,431.1875,798.5,431.1875,798.5,438.1875,788.5,448.1875,732.5,448.1875,732.5,431.1875" style="stroke: #000000; stroke-width: 2.0;"/><text fill="#000000" font-family="sans-serif" font-size="13" font-weight="bold" lengthAdjust="spacingAndGlyphs" textLength="21" x="745.5" y="445.2544">ref</text><text fill="#000000" font-family="sans-serif" font-size="13" lengthAdjust="spacingAndGlyphs" textLength="87" x="765.5" y="464.2544">MS Graph API</text><polygon fill="#A80036" points="680,493.4531,670,497.4531,680,501.4531,676,497.4531" style="stroke: #A80036; stroke-width: 1.0;"/><line style="stroke: #A80036; stroke-width: 1.0;" x1="674" x2="886.5" y1="497.4531" y2="497.4531"/><text fill="#000000" font-family="sans-serif" font-size="13" lengthAdjust="spacingAndGlyphs" textLength="106" x="686" y="492.52">&lt;&lt;Response&gt;&gt;</text><line style="stroke: #A80036; stroke-width: 1.0;" x1="551" x2="593" y1="531.7188" y2="531.7188"/><line style="stroke: #A80036; stroke-width: 1.0;" x1="593" x2="593" y1="531.7188" y2="544.7188"/><line style="stroke: #A80036; stroke-width: 1.0;" x1="546" x2="593" y1="544.7188" y2="544.7188"/><polygon fill="#A80036" points="556,540.7188,546,544.7188,556,548.7188,552,544.7188" style="stroke: #A80036; stroke-width: 1.0;"/><text fill="#000000" font-family="sans-serif" font-size="13" lengthAdjust="spacingAndGlyphs" textLength="87" x="558" y="526.6528">delete ZIP file</text></g></svg>