<?xml version="1.0" encoding="UTF-8" standalone="no"?><svg xmlns="http://www.w3.org/2000/svg" xmlns:xlink="http://www.w3.org/1999/xlink" contentScriptType="application/ecmascript" contentStyleType="text/css" height="594px" preserveAspectRatio="none" style="width:363px;height:594px;" version="1.1" viewBox="0 0 363 594" width="363px" zoomAndPan="magnify"><defs><filter height="300%" id="fy10iqd" width="300%" x="-1" y="-1"><feGaussianBlur result="blurOut" stdDeviation="2.0"/><feColorMatrix in="blurOut" result="blurOut2" type="matrix" values="0 0 0 0 0 0 0 0 0 0 0 0 0 0 0 0 0 0 .4 0"/><feOffset dx="4.0" dy="4.0" in="blurOut2" result="blurOut3"/><feBlend in="SourceGraphic" in2="blurOut3" mode="normal"/></filter></defs><g><ellipse cx="251" cy="18" fill="#000000" filter="url(#fy10iqd)" rx="10" ry="10" style="stroke: none; stroke-width: 1.0;"/><rect fill="#FEFECE" filter="url(#fy10iqd)" height="47.9375" rx="12.5" ry="12.5" style="stroke: #A80036; stroke-width: 1.5;" width="199" x="151.75" y="70"/><text fill="#000000" font-family="sans-serif" font-size="12" lengthAdjust="spacingAndGlyphs" textLength="149" x="176.75" y="91.1387">@Observes timed event</text><text fill="#000000" font-family="sans-serif" font-size="12" lengthAdjust="spacingAndGlyphs" textLength="175" x="165.75" y="105.1074">extract date from event info</text><polygon fill="#FEFECE" filter="url(#fy10iqd)" points="251,160,263,172,251,184,239,172,251,160" style="stroke: #A80036; stroke-width: 1.5;"/><rect fill="#FEFECE" filter="url(#fy10iqd)" height="33.9688" rx="12.5" ry="12.5" style="stroke: #A80036; stroke-width: 1.5;" width="186" x="158" y="242"/><text fill="#000000" font-family="sans-serif" font-size="12" lengthAdjust="spacingAndGlyphs" textLength="166" x="168" y="263.1387">Call remote REST endpoint</text><rect fill="#FEFECE" filter="url(#fy10iqd)" height="33.9688" rx="12.5" ry="12.5" style="stroke: #A80036; stroke-width: 1.5;" width="206" x="148" y="318"/><text fill="#000000" font-family="sans-serif" font-size="12" lengthAdjust="spacingAndGlyphs" textLength="186" x="158" y="339.1387">Package and compress in ZIP</text><rect fill="#FEFECE" filter="url(#fy10iqd)" height="33.9688" rx="12.5" ry="12.5" style="stroke: #A80036; stroke-width: 1.5;" width="168" x="167" y="394"/><text fill="#000000" font-family="sans-serif" font-size="12" lengthAdjust="spacingAndGlyphs" textLength="148" x="177" y="415.1387">Upload to UCL OneDrive</text><polygon fill="#FEFECE" filter="url(#fy10iqd)" points="251,470,263,482,251,494,239,482,251,470" style="stroke: #A80036; stroke-width: 1.5;"/><rect fill="#FEFECE" filter="url(#fy10iqd)" height="33.9688" rx="12.5" ry="12.5" style="stroke: #A80036; stroke-width: 1.5;" width="144" x="179" y="552"/><text fill="#000000" font-family="sans-serif" font-size="12" lengthAdjust="spacingAndGlyphs" textLength="124" x="189" y="573.1387">Store date in cache</text><path d="M251,28.074 C251,37.205 251,51.761 251,64.779 " fill="none" style="stroke: #A80036; stroke-width: 1.0;"/><polygon fill="#A80036" points="251,69.865,255,60.865,251,64.865,247,60.865,251,69.865" style="stroke: #A80036; stroke-width: 1.0;"/><path d="M251,118.215 C251,129.962 251,143.942 251,154.563 " fill="none" style="stroke: #A80036; stroke-width: 1.0;"/><polygon fill="#A80036" points="251,159.781,255,150.781,251,154.781,247,150.781,251,159.781" style="stroke: #A80036; stroke-width: 1.0;"/><text fill="#000000" font-family="sans-serif" font-size="13" lengthAdjust="spacingAndGlyphs" textLength="229" x="1.8703" y="152.4273">Date in event equals date in cache?</text><path d="M251,184.112 C251,197.373 251,219.846 251,236.534 " fill="none" style="stroke: #A80036; stroke-width: 1.0;"/><polygon fill="#A80036" points="251,241.95,255,232.95,251,236.95,247,232.95,251,241.95" style="stroke: #A80036; stroke-width: 1.0;"/><text fill="#000000" font-family="sans-serif" font-size="13" lengthAdjust="spacingAndGlyphs" textLength="30" x="252" y="217.0669">false</text><path d="M251,276.057 C251,286.821 251,301.11 251,312.806 " fill="none" style="stroke: #A80036; stroke-width: 1.0;"/><polygon fill="#A80036" points="251,317.974,255,308.974,251,312.974,247,308.974,251,317.974" style="stroke: #A80036; stroke-width: 1.0;"/><path d="M251,352.057 C251,362.821 251,377.11 251,388.806 " fill="none" style="stroke: #A80036; stroke-width: 1.0;"/><polygon fill="#A80036" points="251,393.974,255,384.974,251,388.974,247,384.974,251,393.974" style="stroke: #A80036; stroke-width: 1.0;"/><path d="M251,428.003 C251,438.951 251,453.428 251,464.484 " fill="none" style="stroke: #A80036; stroke-width: 1.0;"/><polygon fill="#A80036" points="251,469.606,255,460.606,251,464.606,247,460.606,251,469.606" style="stroke: #A80036; stroke-width: 1.0;"/><text fill="#000000" font-family="sans-serif" font-size="13" lengthAdjust="spacingAndGlyphs" textLength="172" x="58.9688" y="461.1169">MS Graph API returns 501?</text><path d="M251,494.1123 C251,507.3734 251,529.8462 251,546.5339 " fill="none" style="stroke: #A80036; stroke-width: 1.0;"/><polygon fill="#A80036" points="251,551.9497,255,542.9497,251,546.9497,247,542.9497,251,551.9497" style="stroke: #A80036; stroke-width: 1.0;"/><text fill="#000000" font-family="sans-serif" font-size="13" lengthAdjust="spacingAndGlyphs" textLength="26" x="252" y="527.0669">true</text></g></svg>