<?xml version="1.0" encoding="UTF-8" standalone="no"?><svg xmlns="http://www.w3.org/2000/svg" xmlns:xlink="http://www.w3.org/1999/xlink" contentScriptType="application/ecmascript" contentStyleType="text/css" height="943px" preserveAspectRatio="none" style="width:692px;height:943px;" version="1.1" viewBox="0 0 692 943" width="692px" zoomAndPan="magnify"><defs><filter height="300%" id="f1ojyoa" width="300%" x="-1" y="-1"><feGaussianBlur result="blurOut" stdDeviation="2.0"/><feColorMatrix in="blurOut" result="blurOut2" type="matrix" values="0 0 0 0 0 0 0 0 0 0 0 0 0 0 0 0 0 0 .4 0"/><feOffset dx="4.0" dy="4.0" in="blurOut2" result="blurOut3"/><feBlend in="SourceGraphic" in2="blurOut3" mode="normal"/></filter></defs><g><!--cluster Internet--><path d="M172,31 C172,28 174,26 177,26 C180,26 182,28 182,31 C182,28 184,26 187,26 C190,26 192,28 192,31 C192,28 194,26 197,26 C200,26 202,28 202,31 C202,28 204,26 207,26 C210,26 212,28 212,31 C212,28 214,26 217,26 C220,26 222,28 222,31 C222,28 224,26 227,26 C230,26 232,28 232,31 C232,28 234,26 237,26 C240,26 242,28 242,31 C242,28 244,26 247,26 C250,26 252,28 252,31 C252,28 254,26 257,26 C260,26 262,28 262,31 C262,28 264,26 267,26 C270,26 272,28 272,31 C272,28 274,26 277,26 C280,26 282,28 282,31 C282,28 284,26 287,26 C290,26 292,28 292,31 C292,28 294,26 297,26 C300,26 302,28 302,31 C302,28 304,26 307,26 C310,26 312,28 312,31 C312,28 314,26 317,26 C320,26 322,28 322,31 C322,28 324,26 327,26 C330,26 332,28 332,31 C332,28 334,26 337,26 C340,26 342,28 342,31 C342,28 344,26 347,26 C350,26 352,28 352,31 C352,28 354,26 357,26 C360,26 362,28 362,31 C362,28 364,26 367,26 C370,26 372,28 372,31 C372,28 374,26 377,26 C380,26 382,28 382,31 C385,31 387,33 387,36 C387,39 385,41 382,41 C385,41 387,43 387,46 C387,49 385,51 382,51 C385,51 387,53 387,56 C387,59 385,61 382,61 C385,61 387,63 387,66 C387,69 385,71 382,71 C385,71 387,73 387,76 C387,79 385,81 382,81 C385,81 387,83 387,86 C387,89 385,91 382,91 C385,91 387,93 387,96 C387,99 385,101 382,101 C385,101 387,103 387,106 C387,109 385,111 382,111 C385,111 387,113 387,116 C387,119 385,121 382,121 C385,121 387,123 387,126 C387,129 385,131 382,131 C385,131 387,133 387,136 C387,139 385,141 382,141 C385,141 387,143 387,146 C387,149 385,151 382,151 C385,151 387,153 387,156 C387,159 385,161 382,161 C385,161 387,163 387,166 C387,169 385,171 382,171 C385,171 387,173 387,176 C387,179 385,181 382,181 C385,181 387,183 387,186 C387,189 385,191 382,191 C385,191 387,193 387,196 C387,199 385,201 382,201 C385,201 387,203 387,206 C387,209 385,211 382,211 C385,211 387,213 387,216 C387,219 385,221 382,221 C385,221 387,223 387,226 C387,229 385,231 382,231 C385,231 387,233 387,236 C387,239 385,241 382,241 C385,241 387,243 387,246 C387,249 385,251 382,251 C385,251 387,253 387,256 C387,259 385,261 382,261 C385,261 387,263 387,266 C387,269 385,271 382,271 C385,271 387,273 387,276 C387,279 385,281 382,281 C385,281 387,283 387,286 C387,289 385,291 382,291 C385,291 387,293 387,296 C387,299 385,301 382,301 C385,301 387,303 387,306 C387,309 385,311 382,311 C385,311 387,313 387,316 C387,319 385,321 382,321 C385,321 387,323 387,326 C387,329 385,331 382,331 C385,331 387,333 387,336 C387,339 385,341 382,341 C385,341 387,343 387,346 C387,349 385,351 382,351 C385,351 387,353 387,356 C387,359 385,361 382,361 C385,361 387,363 387,366 C387,369 385,371 382,371 C385,371 387,373 387,376 C387,379 385,381 382,381 C385,381 387,383 387,386 C387,389 385,391 382,391 C385,391 387,393 387,396 C387,399 385,401 382,401 C385,401 387,403 387,406 C387,409 385,411 382,411 C385,411 387,413 387,416 C387,419 385,421 382,421 C385,421 387,423 387,426 C387,429 385,431 382,431 C385,431 387,433 387,436 C387,439 385,441 382,441 C385,441 387,443 387,446 C387,449 385,451 382,451 C385,451 387,453 387,456 C387,459 385,461 382,461 C385,461 387,463 387,466 C387,469 385,471 382,471 C385,471 387,473 387,476 C387,479 385,481 382,481 C385,481 387,483 387,486 C387,489 385,491 382,491 C385,491 387,493 387,496 C387,499 385,501 382,501 C385,501 387,503 387,506 C387,509 385,511 382,511 C382,514 379,516 377,516 C374,516 372,514 372,511 C372,514 369,516 367,516 C364,516 362,514 362,511 C362,514 359,516 357,516 C354,516 352,514 352,511 C352,514 349,516 347,516 C344,516 342,514 342,511 C342,514 339,516 337,516 C334,516 332,514 332,511 C332,514 329,516 327,516 C324,516 322,514 322,511 C322,514 319,516 317,516 C314,516 312,514 312,511 C312,514 309,516 307,516 C304,516 302,514 302,511 C302,514 299,516 297,516 C294,516 292,514 292,511 C292,514 289,516 287,516 C284,516 282,514 282,511 C282,514 279,516 277,516 C274,516 272,514 272,511 C272,514 269,516 267,516 C264,516 262,514 262,511 C262,514 259,516 257,516 C254,516 252,514 252,511 C252,514 249,516 247,516 C244,516 242,514 242,511 C242,514 239,516 237,516 C234,516 232,514 232,511 C232,514 229,516 227,516 C224,516 222,514 222,511 C222,514 219,516 217,516 C214,516 212,514 212,511 C212,514 209,516 207,516 C204,516 202,514 202,511 C202,514 199,516 197,516 C194,516 192,514 192,511 C192,514 189,516 187,516 C184,516 182,514 182,511 C182,514 179,516 177,516 C174,516 172,514 172,511 C169,511 167,509 167,506 C167,503 169,501 172,501 C169,501 167,499 167,496 C167,493 169,491 172,491 C169,491 167,489 167,486 C167,483 169,481 172,481 C169,481 167,479 167,476 C167,473 169,471 172,471 C169,471 167,469 167,466 C167,463 169,461 172,461 C169,461 167,459 167,456 C167,453 169,451 172,451 C169,451 167,449 167,446 C167,443 169,441 172,441 C169,441 167,439 167,436 C167,433 169,431 172,431 C169,431 167,429 167,426 C167,423 169,421 172,421 C169,421 167,419 167,416 C167,413 169,411 172,411 C169,411 167,409 167,406 C167,403 169,401 172,401 C169,401 167,399 167,396 C167,393 169,391 172,391 C169,391 167,389 167,386 C167,383 169,381 172,381 C169,381 167,379 167,376 C167,373 169,371 172,371 C169,371 167,369 167,366 C167,363 169,361 172,361 C169,361 167,359 167,356 C167,353 169,351 172,351 C169,351 167,349 167,346 C167,343 169,341 172,341 C169,341 167,339 167,336 C167,333 169,331 172,331 C169,331 167,329 167,326 C167,323 169,321 172,321 C169,321 167,319 167,316 C167,313 169,311 172,311 C169,311 167,309 167,306 C167,303 169,301 172,301 C169,301 167,299 167,296 C167,293 169,291 172,291 C169,291 167,289 167,286 C167,283 169,281 172,281 C169,281 167,279 167,276 C167,273 169,271 172,271 C169,271 167,269 167,266 C167,263 169,261 172,261 C169,261 167,259 167,256 C167,253 169,251 172,251 C169,251 167,249 167,246 C167,243 169,241 172,241 C169,241 167,239 167,236 C167,233 169,231 172,231 C169,231 167,229 167,226 C167,223 169,221 172,221 C169,221 167,219 167,216 C167,213 169,211 172,211 C169,211 167,209 167,206 C167,203 169,201 172,201 C169,201 167,199 167,196 C167,193 169,191 172,191 C169,191 167,189 167,186 C167,183 169,181 172,181 C169,181 167,179 167,176 C167,173 169,171 172,171 C169,171 167,169 167,166 C167,163 169,161 172,161 C169,161 167,159 167,156 C167,153 169,151 172,151 C169,151 167,149 167,146 C167,143 169,141 172,141 C169,141 167,139 167,136 C167,133 169,131 172,131 C169,131 167,129 167,126 C167,123 169,121 172,121 C169,121 167,119 167,116 C167,113 169,111 172,111 C169,111 167,109 167,106 C167,103 169,101 172,101 C169,101 167,99 167,96 C167,93 169,91 172,91 C169,91 167,89 167,86 C167,83 169,81 172,81 C169,81 167,79 167,76 C167,73 169,71 172,71 C169,71 167,69 167,66 C167,63 169,61 172,61 C169,61 167,59 167,56 C167,53 169,51 172,51 C169,51 167,49 167,46 C167,43 169,41 172,41 C169,41 167,39 167,36 C167,33 169,31 172,31 " fill="#FFFFFF" filter="url(#f1ojyoa)" style="stroke: #000000; stroke-width: 2.0;"/><text fill="#000000" font-family="sans-serif" font-size="14" font-weight="bold" lengthAdjust="spacingAndGlyphs" textLength="63" x="246.5" y="49.9951">Internet</text><!--cluster CS UCL--><rect fill="#FFFFFF" filter="url(#f1ojyoa)" height="398" style="stroke: #000000; stroke-width: 2.0;" width="410" x="22" y="538"/><path d="M89,539 L89,547.2969 L79,557.2969 L22,557.2969 " fill="none" style="stroke: #000000; stroke-width: 2.0;"/><text fill="#000000" font-family="sans-serif" font-size="14" font-weight="bold" lengthAdjust="spacingAndGlyphs" textLength="57" x="25" y="551.9951">CS UCL</text><!--cluster storage--><polygon fill="#FFFFFF" filter="url(#f1ojyoa)" points="46,824,113,824,120,846.2969,408,846.2969,408,912,46,912,46,824" style="stroke: #000000; stroke-width: 2.0;"/><line style="stroke: #000000; stroke-width: 2.0;" x1="46" x2="120" y1="846.2969" y2="846.2969"/><text fill="#000000" font-family="sans-serif" font-size="14" font-weight="bold" lengthAdjust="spacingAndGlyphs" textLength="61" x="50" y="838.9951">storage</text><!--entity Twitter API--><rect fill="#FEFECE" filter="url(#f1ojyoa)" height="36.2969" style="stroke: #A80036; stroke-width: 1.5;" width="92" x="232" y="60"/><rect fill="#FEFECE" height="5" style="stroke: #A80036; stroke-width: 1.5;" width="10" x="227" y="65"/><rect fill="#FEFECE" height="5" style="stroke: #A80036; stroke-width: 1.5;" width="10" x="227" y="86.2969"/><text fill="#000000" font-family="sans-serif" font-size="14" lengthAdjust="spacingAndGlyphs" textLength="72" x="242" y="82.9951">Twitter API</text><!--entity GET--><ellipse cx="278.25" cy="165" fill="#FEFECE" filter="url(#f1ojyoa)" rx="8" ry="8" style="stroke: #A80036; stroke-width: 2.0;"/><text fill="#000000" font-family="sans-serif" font-size="14" lengthAdjust="spacingAndGlyphs" textLength="29" x="263.75" y="186.9951">GET</text><!--entity wsclient-cloudstore-app--><rect fill="#FEFECE" filter="url(#f1ojyoa)" height="36.2969" style="stroke: #A80036; stroke-width: 1.5;" width="186" x="185" y="250"/><rect fill="#FEFECE" height="5" style="stroke: #A80036; stroke-width: 1.5;" width="10" x="180" y="255"/><rect fill="#FEFECE" height="5" style="stroke: #A80036; stroke-width: 1.5;" width="10" x="180" y="276.2969"/><text fill="#000000" font-family="sans-serif" font-size="14" lengthAdjust="spacingAndGlyphs" textLength="166" x="195" y="272.9951">wsclient-cloudstore-app</text><!--entity PUT--><ellipse cx="278" cy="366" fill="#FEFECE" filter="url(#f1ojyoa)" rx="8" ry="8" style="stroke: #A80036; stroke-width: 2.0;"/><text fill="#000000" font-family="sans-serif" font-size="14" lengthAdjust="spacingAndGlyphs" textLength="28" x="264" y="387.9951">PUT</text><!--entity UCL Office365 OneDrive--><rect fill="#FEFECE" filter="url(#f1ojyoa)" height="36.2969" style="stroke: #A80036; stroke-width: 1.5;" width="185" x="185.75" y="462"/><rect fill="#FEFECE" height="5" style="stroke: #A80036; stroke-width: 1.5;" width="10" x="180.75" y="467"/><rect fill="#FEFECE" height="5" style="stroke: #A80036; stroke-width: 1.5;" width="10" x="180.75" y="488.2969"/><text fill="#000000" font-family="sans-serif" font-size="14" lengthAdjust="spacingAndGlyphs" textLength="165" x="195.75" y="484.9951">UCL Office365 OneDrive</text><!--entity API--><ellipse cx="278.25" cy="583" fill="#FEFECE" filter="url(#f1ojyoa)" rx="8" ry="8" style="stroke: #A80036; stroke-width: 2.0;"/><text fill="#000000" font-family="sans-serif" font-size="14" lengthAdjust="spacingAndGlyphs" textLength="21" x="267.75" y="604.9951">API</text><!--entity clientapp1--><rect fill="#FEFECE" filter="url(#f1ojyoa)" height="36.2969" style="stroke: #A80036; stroke-width: 1.5;" width="92" x="60" y="668"/><rect fill="#FEFECE" height="5" style="stroke: #A80036; stroke-width: 1.5;" width="10" x="55" y="673"/><rect fill="#FEFECE" height="5" style="stroke: #A80036; stroke-width: 1.5;" width="10" x="55" y="694.2969"/><text fill="#000000" font-family="sans-serif" font-size="14" lengthAdjust="spacingAndGlyphs" textLength="72" x="70" y="690.9951">clientapp1</text><!--entity clientapp2--><rect fill="#FEFECE" filter="url(#f1ojyoa)" height="36.2969" style="stroke: #A80036; stroke-width: 1.5;" width="92" x="187" y="668"/><rect fill="#FEFECE" height="5" style="stroke: #A80036; stroke-width: 1.5;" width="10" x="182" y="673"/><rect fill="#FEFECE" height="5" style="stroke: #A80036; stroke-width: 1.5;" width="10" x="182" y="694.2969"/><text fill="#000000" font-family="sans-serif" font-size="14" lengthAdjust="spacingAndGlyphs" textLength="72" x="197" y="690.9951">clientapp2</text><!--entity clientappn--><rect fill="#FEFECE" filter="url(#f1ojyoa)" height="36.2969" style="stroke: #A80036; stroke-width: 1.5;" width="92" x="314" y="668"/><rect fill="#FEFECE" height="5" style="stroke: #A80036; stroke-width: 1.5;" width="10" x="309" y="673"/><rect fill="#FEFECE" height="5" style="stroke: #A80036; stroke-width: 1.5;" width="10" x="309" y="694.2969"/><text fill="#000000" font-family="sans-serif" font-size="14" lengthAdjust="spacingAndGlyphs" textLength="72" x="324" y="690.9951">clientappn</text><!--entity data processor--><rect fill="#FEFECE" filter="url(#f1ojyoa)" height="36.2969" style="stroke: #A80036; stroke-width: 1.5;" width="124" x="165" y="764"/><rect fill="#FEFECE" height="5" style="stroke: #A80036; stroke-width: 1.5;" width="10" x="160" y="769"/><rect fill="#FEFECE" height="5" style="stroke: #A80036; stroke-width: 1.5;" width="10" x="160" y="790.2969"/><text fill="#000000" font-family="sans-serif" font-size="14" lengthAdjust="spacingAndGlyphs" textLength="104" x="175" y="786.9951">data processor</text><!--entity objectstore--><rect fill="#FEFECE" filter="url(#f1ojyoa)" height="36.2969" style="stroke: #A80036; stroke-width: 1.5;" width="99" x="292.75" y="860"/><rect fill="#FEFECE" height="5" style="stroke: #A80036; stroke-width: 1.5;" width="10" x="287.75" y="865"/><rect fill="#FEFECE" height="5" style="stroke: #A80036; stroke-width: 1.5;" width="10" x="287.75" y="886.2969"/><text fill="#000000" font-family="sans-serif" font-size="14" lengthAdjust="spacingAndGlyphs" textLength="79" x="302.75" y="882.9951">objectstore</text><!--entity database--><rect fill="#FEFECE" filter="url(#f1ojyoa)" height="36.2969" style="stroke: #A80036; stroke-width: 1.5;" width="84" x="173" y="860"/><rect fill="#FEFECE" height="5" style="stroke: #A80036; stroke-width: 1.5;" width="10" x="168" y="865"/><rect fill="#FEFECE" height="5" style="stroke: #A80036; stroke-width: 1.5;" width="10" x="168" y="886.2969"/><text fill="#000000" font-family="sans-serif" font-size="14" lengthAdjust="spacingAndGlyphs" textLength="64" x="183" y="882.9951">database</text><!--entity filestore--><rect fill="#FEFECE" filter="url(#f1ojyoa)" height="36.2969" style="stroke: #A80036; stroke-width: 1.5;" width="75" x="62.75" y="860"/><rect fill="#FEFECE" height="5" style="stroke: #A80036; stroke-width: 1.5;" width="10" x="57.75" y="865"/><rect fill="#FEFECE" height="5" style="stroke: #A80036; stroke-width: 1.5;" width="10" x="57.75" y="886.2969"/><text fill="#000000" font-family="sans-serif" font-size="14" lengthAdjust="spacingAndGlyphs" textLength="55" x="72.75" y="882.9951">filestore</text><polygon fill="#FBFB77" filter="url(#f1ojyoa)" points="403,346.5,403,401.8984,683,401.8984,683,356.5,673,346.5,403,346.5" style="stroke: #A80036; stroke-width: 1.0;"/><polygon fill="#FBFB77" points="403,346.5,403,401.8984,683,401.8984,683,356.5,673,346.5,479.396,346.5,321.463,286.057,471.396,346.5,403,346.5" style="stroke: #A80036; stroke-width: 1.0;"/><line style="stroke: #A80036; stroke-width: 1.0;" x1="673" x2="673" y1="346.5" y2="356.5"/><line style="stroke: #A80036; stroke-width: 1.0;" x1="683" x2="673" y1="356.5" y2="356.5"/><text fill="#000000" font-family="sans-serif" font-size="13" lengthAdjust="spacingAndGlyphs" textLength="149" x="409" y="363.5669">Calls Twitter Search API</text><text fill="#000000" font-family="sans-serif" font-size="13" lengthAdjust="spacingAndGlyphs" textLength="259" x="409" y="378.6997">Package and compress JSON in a ZIP file</text><text fill="#000000" font-family="sans-serif" font-size="13" lengthAdjust="spacingAndGlyphs" textLength="183" x="409" y="393.8325">Push the ZIP file to OneDrive</text><polygon fill="#FBFB77" filter="url(#f1ojyoa)" points="448.75,673.5,448.75,698.6328,537.75,698.6328,537.75,683.5,527.75,673.5,448.75,673.5" style="stroke: #A80036; stroke-width: 1.0;"/><polygon fill="#FBFB77" points="448.75,673.5,448.75,698.6328,537.75,698.6328,537.75,683.5,527.75,673.5,470.32,673.5,288.37,596.486,462.32,673.5,448.75,673.5" style="stroke: #A80036; stroke-width: 1.0;"/><line style="stroke: #A80036; stroke-width: 1.0;" x1="527.75" x2="527.75" y1="673.5" y2="683.5"/><line style="stroke: #A80036; stroke-width: 1.0;" x1="537.75" x2="527.75" y1="683.5" y2="683.5"/><text fill="#000000" font-family="sans-serif" font-size="13" lengthAdjust="spacingAndGlyphs" textLength="68" x="454.75" y="690.5669">Python API</text><path d="M278,96.058 C278,113.152 278,139.266 278,155.983 " fill="none" style="stroke: #A80036; stroke-width: 1.0;"/><path d="M278,190.199 C278,205.291 278,227.926 278,244.717 " fill="none" style="stroke: #A80036; stroke-width: 1.0;"/><polygon fill="#A80036" points="278,249.725,282,240.725,278,244.725,274,240.725,278,249.725" style="stroke: #A80036; stroke-width: 1.0;"/><path d="M278,286.173 C278,304.103 278,332.257 278,351.617 " fill="none" style="stroke: #A80036; stroke-width: 1.0;"/><polygon fill="#A80036" points="278,356.828,282,347.828,278,351.828,274,347.828,278,356.828" style="stroke: #A80036; stroke-width: 1.0;"/><path d="M278,391.25 C278,410.445 278,442.238 278,461.827 " fill="none" style="stroke: #A80036; stroke-width: 1.0;"/><path d="M278,498.031 C278,517.13 278,548.126 278,568.784 " fill="none" style="stroke: #A80036; stroke-width: 1.0; stroke-dasharray: 7.0,7.0;"/><polygon fill="#A80036" points="278,573.799,282,564.799,278,568.799,274,564.799,278,573.799" style="stroke: #A80036; stroke-width: 1.0;"/><path d="M267.5,597.678 C242.19,611.362 177.006,646.607 137.622,667.902 " fill="none" style="stroke: #A80036; stroke-width: 1.0;"/><path d="M270.162,608.199 C262.104,624.853 249.602,650.69 241.359,667.725 " fill="none" style="stroke: #A80036; stroke-width: 1.0;"/><path d="M288.385,603.779 C302.693,620.006 328.557,649.34 344.975,667.959 " fill="none" style="stroke: #A80036; stroke-width: 1.0;"/><path d="M127.912,704.023 C148.428,719.961 179.105,743.792 200.883,760.711 " fill="none" style="stroke: #A80036; stroke-width: 1.0;"/><polygon fill="#A80036" points="204.842,763.786,200.1882,755.106,200.8933,760.7188,195.2806,761.4239,204.842,763.786" style="stroke: #A80036; stroke-width: 1.0;"/><path d="M231.9,704.241 C230.927,719.479 229.502,741.807 228.439,758.458 " fill="none" style="stroke: #A80036; stroke-width: 1.0;"/><polygon fill="#A80036" points="228.094,763.868,232.6593,755.1411,228.4126,758.8782,224.6755,754.6314,228.094,763.868" style="stroke: #A80036; stroke-width: 1.0;"/><path d="M335.915,704.023 C313.364,719.961 279.645,743.792 255.707,760.711 " fill="none" style="stroke: #A80036; stroke-width: 1.0;"/><polygon fill="#A80036" points="251.356,763.786,261.0146,761.8595,255.4396,760.9008,256.3983,755.3258,251.356,763.786" style="stroke: #A80036; stroke-width: 1.0;"/><path d="M253.124,800.01 C260.354,804.971 268.106,810.534 275,816 C290.862,828.578 307.707,843.924 320.539,856.0779 " fill="none" style="stroke: #A80036; stroke-width: 1.0;"/><polygon fill="#A80036" points="324.387,859.7406,320.6258,850.6382,320.7653,856.2934,315.1102,856.4329,324.387,859.7406" style="stroke: #A80036; stroke-width: 1.0;"/><path d="M224.799,800.241 C222.837,815.612 219.954,838.196 217.822,854.8906 " fill="none" style="stroke: #A80036; stroke-width: 1.0;"/><polygon fill="#A80036" points="217.187,859.8683,222.2944,851.4472,217.8201,854.9085,214.3588,850.4343,217.187,859.8683" style="stroke: #A80036; stroke-width: 1.0;"/><path d="M183.05,800.135 C173.729,804.656 164.228,809.981 156,816 C140.78,827.134 126.455,842.873 116.103,855.5753 " fill="none" style="stroke: #A80036; stroke-width: 1.0;"/><polygon fill="#A80036" points="112.75,859.7555,121.5022,855.239,115.879,855.8556,115.2624,850.2325,112.75,859.7555" style="stroke: #A80036; stroke-width: 1.0;"/></g></svg>