<?xml version="1.0" encoding="UTF-8" standalone="no"?><svg xmlns="http://www.w3.org/2000/svg" xmlns:xlink="http://www.w3.org/1999/xlink" contentScriptType="application/ecmascript" contentStyleType="text/css" height="940px" preserveAspectRatio="none" style="width:700px;height:940px;" version="1.1" viewBox="0 0 700 940" width="700px" zoomAndPan="magnify"><defs><filter height="300%" id="fy9sq18" width="300%" x="-1" y="-1"><feGaussianBlur result="blurOut" stdDeviation="2.0"/><feColorMatrix in="blurOut" result="blurOut2" type="matrix" values="0 0 0 0 0 0 0 0 0 0 0 0 0 0 0 0 0 0 .4 0"/><feOffset dx="4.0" dy="4.0" in="blurOut2" result="blurOut3"/><feBlend in="SourceGraphic" in2="blurOut3" mode="normal"/></filter></defs><g><!--cluster Internet--><path d="M180,31 C180,28 182,26 185,26 C188,26 190,28 190,31 C190,28 192,26 195,26 C198,26 200,28 200,31 C200,28 202,26 205,26 C208,26 210,28 210,31 C210,28 212,26 215,26 C218,26 220,28 220,31 C220,28 222,26 225,26 C228,26 230,28 230,31 C230,28 232,26 235,26 C238,26 240,28 240,31 C240,28 242,26 245,26 C248,26 250,28 250,31 C250,28 252,26 255,26 C258,26 260,28 260,31 C260,28 262,26 265,26 C268,26 270,28 270,31 C270,28 272,26 275,26 C278,26 280,28 280,31 C280,28 282,26 285,26 C288,26 290,28 290,31 C290,28 292,26 295,26 C298,26 300,28 300,31 C300,28 302,26 305,26 C308,26 310,28 310,31 C310,28 312,26 315,26 C318,26 320,28 320,31 C320,28 322,26 325,26 C328,26 330,28 330,31 C330,28 332,26 335,26 C338,26 340,28 340,31 C340,28 342,26 345,26 C348,26 350,28 350,31 C350,28 352,26 355,26 C358,26 360,28 360,31 C360,28 362,26 365,26 C368,26 370,28 370,31 C370,28 372,26 375,26 C378,26 380,28 380,31 C380,28 382,26 385,26 C388,26 390,28 390,31 C393,31 395,33 395,36 C395,39 393,41 390,41 C393,41 395,43 395,46 C395,49 393,51 390,51 C393,51 395,53 395,56 C395,59 393,61 390,61 C393,61 395,63 395,66 C395,69 393,71 390,71 C393,71 395,73 395,76 C395,79 393,81 390,81 C393,81 395,83 395,86 C395,89 393,91 390,91 C393,91 395,93 395,96 C395,99 393,101 390,101 C393,101 395,103 395,106 C395,109 393,111 390,111 C393,111 395,113 395,116 C395,119 393,121 390,121 C393,121 395,123 395,126 C395,129 393,131 390,131 C393,131 395,133 395,136 C395,139 393,141 390,141 C393,141 395,143 395,146 C395,149 393,151 390,151 C393,151 395,153 395,156 C395,159 393,161 390,161 C393,161 395,163 395,166 C395,169 393,171 390,171 C393,171 395,173 395,176 C395,179 393,181 390,181 C393,181 395,183 395,186 C395,189 393,191 390,191 C393,191 395,193 395,196 C395,199 393,201 390,201 C393,201 395,203 395,206 C395,209 393,211 390,211 C393,211 395,213 395,216 C395,219 393,221 390,221 C393,221 395,223 395,226 C395,229 393,231 390,231 C393,231 395,233 395,236 C395,239 393,241 390,241 C393,241 395,243 395,246 C395,249 393,251 390,251 C393,251 395,253 395,256 C395,259 393,261 390,261 C393,261 395,263 395,266 C395,269 393,271 390,271 C393,271 395,273 395,276 C395,279 393,281 390,281 C393,281 395,283 395,286 C395,289 393,291 390,291 C393,291 395,293 395,296 C395,299 393,301 390,301 C393,301 395,303 395,306 C395,309 393,311 390,311 C393,311 395,313 395,316 C395,319 393,321 390,321 C393,321 395,323 395,326 C395,329 393,331 390,331 C393,331 395,333 395,336 C395,339 393,341 390,341 C393,341 395,343 395,346 C395,349 393,351 390,351 C393,351 395,353 395,356 C395,359 393,361 390,361 C393,361 395,363 395,366 C395,369 393,371 390,371 C393,371 395,373 395,376 C395,379 393,381 390,381 C393,381 395,383 395,386 C395,389 393,391 390,391 C393,391 395,393 395,396 C395,399 393,401 390,401 C393,401 395,403 395,406 C395,409 393,411 390,411 C393,411 395,413 395,416 C395,419 393,421 390,421 C393,421 395,423 395,426 C395,429 393,431 390,431 C393,431 395,433 395,436 C395,439 393,441 390,441 C393,441 395,443 395,446 C395,449 393,451 390,451 C393,451 395,453 395,456 C395,459 393,461 390,461 C393,461 395,463 395,466 C395,469 393,471 390,471 C393,471 395,473 395,476 C395,479 393,481 390,481 C393,481 395,483 395,486 C395,489 393,491 390,491 C393,491 395,493 395,496 C395,499 393,501 390,501 C390,504 387,506 385,506 C382,506 380,504 380,501 C380,504 377,506 375,506 C372,506 370,504 370,501 C370,504 367,506 365,506 C362,506 360,504 360,501 C360,504 357,506 355,506 C352,506 350,504 350,501 C350,504 347,506 345,506 C342,506 340,504 340,501 C340,504 337,506 335,506 C332,506 330,504 330,501 C330,504 327,506 325,506 C322,506 320,504 320,501 C320,504 317,506 315,506 C312,506 310,504 310,501 C310,504 307,506 305,506 C302,506 300,504 300,501 C300,504 297,506 295,506 C292,506 290,504 290,501 C290,504 287,506 285,506 C282,506 280,504 280,501 C280,504 277,506 275,506 C272,506 270,504 270,501 C270,504 267,506 265,506 C262,506 260,504 260,501 C260,504 257,506 255,506 C252,506 250,504 250,501 C250,504 247,506 245,506 C242,506 240,504 240,501 C240,504 237,506 235,506 C232,506 230,504 230,501 C230,504 227,506 225,506 C222,506 220,504 220,501 C220,504 217,506 215,506 C212,506 210,504 210,501 C210,504 207,506 205,506 C202,506 200,504 200,501 C200,504 197,506 195,506 C192,506 190,504 190,501 C190,504 187,506 185,506 C182,506 180,504 180,501 C177,501 175,499 175,496 C175,493 177,491 180,491 C177,491 175,489 175,486 C175,483 177,481 180,481 C177,481 175,479 175,476 C175,473 177,471 180,471 C177,471 175,469 175,466 C175,463 177,461 180,461 C177,461 175,459 175,456 C175,453 177,451 180,451 C177,451 175,449 175,446 C175,443 177,441 180,441 C177,441 175,439 175,436 C175,433 177,431 180,431 C177,431 175,429 175,426 C175,423 177,421 180,421 C177,421 175,419 175,416 C175,413 177,411 180,411 C177,411 175,409 175,406 C175,403 177,401 180,401 C177,401 175,399 175,396 C175,393 177,391 180,391 C177,391 175,389 175,386 C175,383 177,381 180,381 C177,381 175,379 175,376 C175,373 177,371 180,371 C177,371 175,369 175,366 C175,363 177,361 180,361 C177,361 175,359 175,356 C175,353 177,351 180,351 C177,351 175,349 175,346 C175,343 177,341 180,341 C177,341 175,339 175,336 C175,333 177,331 180,331 C177,331 175,329 175,326 C175,323 177,321 180,321 C177,321 175,319 175,316 C175,313 177,311 180,311 C177,311 175,309 175,306 C175,303 177,301 180,301 C177,301 175,299 175,296 C175,293 177,291 180,291 C177,291 175,289 175,286 C175,283 177,281 180,281 C177,281 175,279 175,276 C175,273 177,271 180,271 C177,271 175,269 175,266 C175,263 177,261 180,261 C177,261 175,259 175,256 C175,253 177,251 180,251 C177,251 175,249 175,246 C175,243 177,241 180,241 C177,241 175,239 175,236 C175,233 177,231 180,231 C177,231 175,229 175,226 C175,223 177,221 180,221 C177,221 175,219 175,216 C175,213 177,211 180,211 C177,211 175,209 175,206 C175,203 177,201 180,201 C177,201 175,199 175,196 C175,193 177,191 180,191 C177,191 175,189 175,186 C175,183 177,181 180,181 C177,181 175,179 175,176 C175,173 177,171 180,171 C177,171 175,169 175,166 C175,163 177,161 180,161 C177,161 175,159 175,156 C175,153 177,151 180,151 C177,151 175,149 175,146 C175,143 177,141 180,141 C177,141 175,139 175,136 C175,133 177,131 180,131 C177,131 175,129 175,126 C175,123 177,121 180,121 C177,121 175,119 175,116 C175,113 177,111 180,111 C177,111 175,109 175,106 C175,103 177,101 180,101 C177,101 175,99 175,96 C175,93 177,91 180,91 C177,91 175,89 175,86 C175,83 177,81 180,81 C177,81 175,79 175,76 C175,73 177,71 180,71 C177,71 175,69 175,66 C175,63 177,61 180,61 C177,61 175,59 175,56 C175,53 177,51 180,51 C177,51 175,49 175,46 C175,43 177,41 180,41 C177,41 175,39 175,36 C175,33 177,31 180,31 " fill="#FFFFFF" filter="url(#fy9sq18)" style="stroke: #000000; stroke-width: 2.0;"/><text fill="#000000" font-family="sans-serif" font-size="14" font-weight="bold" lengthAdjust="spacingAndGlyphs" textLength="63" x="254.5" y="49.9951">Internet</text><!--cluster CS UCL--><rect fill="#FFFFFF" filter="url(#fy9sq18)" height="397" style="stroke: #000000; stroke-width: 2.0;" width="409" x="22" y="536"/><path d="M89,537 L89,545.2969 L79,555.2969 L22,555.2969 " fill="none" style="stroke: #000000; stroke-width: 2.0;"/><text fill="#000000" font-family="sans-serif" font-size="14" font-weight="bold" lengthAdjust="spacingAndGlyphs" textLength="57" x="25" y="549.9951">CS UCL</text><!--cluster storage--><polygon fill="#FFFFFF" filter="url(#fy9sq18)" points="46,822,113,822,120,844.2969,407,844.2969,407,909,46,909,46,822" style="stroke: #000000; stroke-width: 2.0;"/><line style="stroke: #000000; stroke-width: 2.0;" x1="46" x2="120" y1="844.2969" y2="844.2969"/><text fill="#000000" font-family="sans-serif" font-size="14" font-weight="bold" lengthAdjust="spacingAndGlyphs" textLength="61" x="50" y="836.9951">storage</text><!--entity Twitter API--><rect fill="#FEFECE" filter="url(#fy9sq18)" height="36.2969" style="stroke: #A80036; stroke-width: 1.5;" width="92" x="240" y="59"/><rect fill="#FEFECE" height="5" style="stroke: #A80036; stroke-width: 1.5;" width="10" x="235" y="64"/><rect fill="#FEFECE" height="5" style="stroke: #A80036; stroke-width: 1.5;" width="10" x="235" y="85.2969"/><text fill="#000000" font-family="sans-serif" font-size="14" lengthAdjust="spacingAndGlyphs" textLength="72" x="250" y="81.9951">Twitter API</text><!--entity GET--><ellipse cx="286" cy="164" fill="#FEFECE" filter="url(#fy9sq18)" rx="8" ry="8" style="stroke: #A80036; stroke-width: 2.0;"/><text fill="#000000" font-family="sans-serif" font-size="14" lengthAdjust="spacingAndGlyphs" textLength="29" x="271.5" y="185.9951">GET</text><!--entity wsclient-cloudstore-app--><rect fill="#FEFECE" filter="url(#fy9sq18)" height="36.2969" style="stroke: #A80036; stroke-width: 1.5;" width="186" x="193" y="249"/><rect fill="#FEFECE" height="5" style="stroke: #A80036; stroke-width: 1.5;" width="10" x="188" y="254"/><rect fill="#FEFECE" height="5" style="stroke: #A80036; stroke-width: 1.5;" width="10" x="188" y="275.2969"/><text fill="#000000" font-family="sans-serif" font-size="14" lengthAdjust="spacingAndGlyphs" textLength="166" x="203" y="271.9951">wsclient-cloudstore-app</text><!--entity PUT--><ellipse cx="286" cy="364.5" fill="#FEFECE" filter="url(#fy9sq18)" rx="8" ry="8" style="stroke: #A80036; stroke-width: 2.0;"/><text fill="#000000" font-family="sans-serif" font-size="14" lengthAdjust="spacingAndGlyphs" textLength="28" x="272" y="386.4951">PUT</text><!--entity UCL Office365 OneDrive--><rect fill="#FEFECE" filter="url(#fy9sq18)" height="36.2969" style="stroke: #A80036; stroke-width: 1.5;" width="185" x="193.5" y="460"/><rect fill="#FEFECE" height="5" style="stroke: #A80036; stroke-width: 1.5;" width="10" x="188.5" y="465"/><rect fill="#FEFECE" height="5" style="stroke: #A80036; stroke-width: 1.5;" width="10" x="188.5" y="486.2969"/><text fill="#000000" font-family="sans-serif" font-size="14" lengthAdjust="spacingAndGlyphs" textLength="165" x="203.5" y="482.9951">UCL Office365 OneDrive</text><!--entity API--><ellipse cx="286" cy="580" fill="#FEFECE" filter="url(#fy9sq18)" rx="8" ry="8" style="stroke: #A80036; stroke-width: 2.0;"/><text fill="#000000" font-family="sans-serif" font-size="14" lengthAdjust="spacingAndGlyphs" textLength="21" x="275.5" y="601.9951">API</text><!--entity clientapp1--><rect fill="#FEFECE" filter="url(#fy9sq18)" height="36.2969" style="stroke: #A80036; stroke-width: 1.5;" width="92" x="59" y="665"/><rect fill="#FEFECE" height="5" style="stroke: #A80036; stroke-width: 1.5;" width="10" x="54" y="670"/><rect fill="#FEFECE" height="5" style="stroke: #A80036; stroke-width: 1.5;" width="10" x="54" y="691.2969"/><text fill="#000000" font-family="sans-serif" font-size="14" lengthAdjust="spacingAndGlyphs" textLength="72" x="69" y="687.9951">clientapp1</text><!--entity clientapp2--><rect fill="#FEFECE" filter="url(#fy9sq18)" height="36.2969" style="stroke: #A80036; stroke-width: 1.5;" width="92" x="186" y="665"/><rect fill="#FEFECE" height="5" style="stroke: #A80036; stroke-width: 1.5;" width="10" x="181" y="670"/><rect fill="#FEFECE" height="5" style="stroke: #A80036; stroke-width: 1.5;" width="10" x="181" y="691.2969"/><text fill="#000000" font-family="sans-serif" font-size="14" lengthAdjust="spacingAndGlyphs" textLength="72" x="196" y="687.9951">clientapp2</text><!--entity clientappn--><rect fill="#FEFECE" filter="url(#fy9sq18)" height="36.2969" style="stroke: #A80036; stroke-width: 1.5;" width="92" x="313" y="665"/><rect fill="#FEFECE" height="5" style="stroke: #A80036; stroke-width: 1.5;" width="10" x="308" y="670"/><rect fill="#FEFECE" height="5" style="stroke: #A80036; stroke-width: 1.5;" width="10" x="308" y="691.2969"/><text fill="#000000" font-family="sans-serif" font-size="14" lengthAdjust="spacingAndGlyphs" textLength="72" x="323" y="687.9951">clientappn</text><!--entity data processor--><rect fill="#FEFECE" filter="url(#fy9sq18)" height="36.2969" style="stroke: #A80036; stroke-width: 1.5;" width="124" x="158" y="761"/><rect fill="#FEFECE" height="5" style="stroke: #A80036; stroke-width: 1.5;" width="10" x="153" y="766"/><rect fill="#FEFECE" height="5" style="stroke: #A80036; stroke-width: 1.5;" width="10" x="153" y="787.2969"/><text fill="#000000" font-family="sans-serif" font-size="14" lengthAdjust="spacingAndGlyphs" textLength="104" x="168" y="783.9951">data processor</text><!--entity objectstore--><rect fill="#FEFECE" filter="url(#fy9sq18)" height="36.2969" style="stroke: #A80036; stroke-width: 1.5;" width="99" x="291.5" y="857"/><rect fill="#FEFECE" height="5" style="stroke: #A80036; stroke-width: 1.5;" width="10" x="286.5" y="862"/><rect fill="#FEFECE" height="5" style="stroke: #A80036; stroke-width: 1.5;" width="10" x="286.5" y="883.2969"/><text fill="#000000" font-family="sans-serif" font-size="14" lengthAdjust="spacingAndGlyphs" textLength="79" x="301.5" y="879.9951">objectstore</text><!--entity database--><rect fill="#FEFECE" filter="url(#fy9sq18)" height="36.2969" style="stroke: #A80036; stroke-width: 1.5;" width="84" x="172" y="857"/><rect fill="#FEFECE" height="5" style="stroke: #A80036; stroke-width: 1.5;" width="10" x="167" y="862"/><rect fill="#FEFECE" height="5" style="stroke: #A80036; stroke-width: 1.5;" width="10" x="167" y="883.2969"/><text fill="#000000" font-family="sans-serif" font-size="14" lengthAdjust="spacingAndGlyphs" textLength="64" x="182" y="879.9951">database</text><!--entity filestore--><rect fill="#FEFECE" filter="url(#fy9sq18)" height="36.2969" style="stroke: #A80036; stroke-width: 1.5;" width="75" x="61.5" y="857"/><rect fill="#FEFECE" height="5" style="stroke: #A80036; stroke-width: 1.5;" width="10" x="56.5" y="862"/><rect fill="#FEFECE" height="5" style="stroke: #A80036; stroke-width: 1.5;" width="10" x="56.5" y="883.2969"/><text fill="#000000" font-family="sans-serif" font-size="14" lengthAdjust="spacingAndGlyphs" textLength="55" x="71.5" y="879.9951">filestore</text><polygon fill="#FBFB77" filter="url(#fy9sq18)" points="411,345,411,400.3984,691,400.3984,691,355,681,345,411,345" style="stroke: #A80036; stroke-width: 1.0;"/><polygon fill="#FBFB77" points="411,345,411,400.3984,691,400.3984,691,355,681,345,487.038,345,329.759,285.091,479.038,345,411,345" style="stroke: #A80036; stroke-width: 1.0;"/><line style="stroke: #A80036; stroke-width: 1.0;" x1="681" x2="681" y1="345" y2="355"/><line style="stroke: #A80036; stroke-width: 1.0;" x1="691" x2="681" y1="355" y2="355"/><text fill="#000000" font-family="sans-serif" font-size="13" lengthAdjust="spacingAndGlyphs" textLength="149" x="417" y="362.0669">Calls Twitter Search API</text><text fill="#000000" font-family="sans-serif" font-size="13" lengthAdjust="spacingAndGlyphs" textLength="259" x="417" y="377.1997">Package and compress JSON in a ZIP file</text><text fill="#000000" font-family="sans-serif" font-size="13" lengthAdjust="spacingAndGlyphs" textLength="183" x="417" y="392.3325">Push the ZIP file to OneDrive</text><polygon fill="#FBFB77" filter="url(#fy9sq18)" points="446.5,670.5,446.5,695.6328,535.5,695.6328,535.5,680.5,525.5,670.5,446.5,670.5" style="stroke: #A80036; stroke-width: 1.0;"/><polygon fill="#FBFB77" points="446.5,670.5,446.5,695.6328,535.5,695.6328,535.5,680.5,525.5,670.5,469.52,670.5,296.733,593.869,461.52,670.5,446.5,670.5" style="stroke: #A80036; stroke-width: 1.0;"/><line style="stroke: #A80036; stroke-width: 1.0;" x1="525.5" x2="525.5" y1="670.5" y2="680.5"/><line style="stroke: #A80036; stroke-width: 1.0;" x1="535.5" x2="525.5" y1="680.5" y2="680.5"/><text fill="#000000" font-family="sans-serif" font-size="13" lengthAdjust="spacingAndGlyphs" textLength="68" x="452.5" y="687.5669">Python API</text><path d="M286,95.058 C286,112.152 286,138.266 286,154.983 " fill="none" style="stroke: #A80036; stroke-width: 1.0;"/><path d="M286,189.199 C286,204.291 286,226.926 286,243.717 " fill="none" style="stroke: #A80036; stroke-width: 1.0;"/><polygon fill="#A80036" points="286,248.725,290,239.725,286,243.725,282,239.725,286,248.725" style="stroke: #A80036; stroke-width: 1.0;"/><path d="M286,285.091 C286,302.935 286,330.953 286,350.22 " fill="none" style="stroke: #A80036; stroke-width: 1.0;"/><polygon fill="#A80036" points="286,355.406,290,346.406,286,350.406,282,346.406,286,355.406" style="stroke: #A80036; stroke-width: 1.0;"/><path d="M286,389.672 C286,408.775 286,440.414 286,459.909 " fill="none" style="stroke: #A80036; stroke-width: 1.0;"/><path d="M286,496.352 C286,515.181 286,545.266 286,565.56 " fill="none" style="stroke: #A80036; stroke-width: 1.0; stroke-dasharray: 7.0,7.0;"/><polygon fill="#A80036" points="286,570.751,290,561.751,286,565.751,282,561.751,286,570.751" style="stroke: #A80036; stroke-width: 1.0;"/><path d="M275.486,594.402 C249.23,607.893 179.906,643.513 138.188,664.947 " fill="none" style="stroke: #A80036; stroke-width: 1.0;"/><path d="M276.594,605.199 C266.924,621.853 251.922,647.69 242.03,664.725 " fill="none" style="stroke: #A80036; stroke-width: 1.0;"/><path d="M296.771,602.722 C309.701,619.194 331.394,646.83 345.448,664.736 " fill="none" style="stroke: #A80036; stroke-width: 1.0;"/><path d="M125.826,701.023 C145.244,716.895 174.238,740.595 194.92,757.5 " fill="none" style="stroke: #A80036; stroke-width: 1.0;"/><polygon fill="#A80036" points="198.941,760.786,194.5039,751.9933,195.0696,757.6218,189.4411,758.1875,198.941,760.786" style="stroke: #A80036; stroke-width: 1.0;"/><path d="M229.799,701.241 C227.837,716.612 224.954,739.196 222.822,755.891 " fill="none" style="stroke: #A80036; stroke-width: 1.0;"/><polygon fill="#A80036" points="222.187,760.868,227.2939,752.4466,222.8198,755.9082,219.3583,751.4341,222.187,760.868" style="stroke: #A80036; stroke-width: 1.0;"/><path d="M333.828,701.023 C310.162,717.027 274.727,740.99 249.691,757.921 " fill="none" style="stroke: #A80036; stroke-width: 1.0;"/><polygon fill="#A80036" points="245.454,760.786,255.1502,759.0588,249.5961,757.9855,250.6695,752.4314,245.454,760.786" style="stroke: #A80036; stroke-width: 1.0;"/><path d="M249.188,797.125 C257.403,802.278 266.216,808.13 274,814 C290.043,826.098 306.888,841.195 319.673,853.2183 " fill="none" style="stroke: #A80036; stroke-width: 1.0;"/><polygon fill="#A80036" points="323.506,856.8443,319.7185,847.7528,319.8744,853.4075,314.2197,853.5634,323.506,856.8443" style="stroke: #A80036; stroke-width: 1.0;"/><path d="M218.9,797.241 C217.927,812.479 216.502,834.807 215.439,851.4576 " fill="none" style="stroke: #A80036; stroke-width: 1.0;"/><polygon fill="#A80036" points="215.094,856.8683,219.6593,848.1414,215.4126,851.8785,211.6755,847.6317,215.094,856.8683" style="stroke: #A80036; stroke-width: 1.0;"/><path d="M182.249,797 C172.962,801.91 163.308,807.673 155,814 C140.335,825.169 126.19,840.374 115.785,852.6815 " fill="none" style="stroke: #A80036; stroke-width: 1.0;"/><polygon fill="#A80036" points="112.404,856.7345,121.2404,852.3849,115.6065,852.8947,115.0967,847.2609,112.404,856.7345" style="stroke: #A80036; stroke-width: 1.0;"/></g></svg>