<?xml version="1.0" encoding="UTF-8" standalone="no"?><svg xmlns="http://www.w3.org/2000/svg" xmlns:xlink="http://www.w3.org/1999/xlink" contentScriptType="application/ecmascript" contentStyleType="text/css" height="921px" preserveAspectRatio="none" style="width:439px;height:921px;" version="1.1" viewBox="0 0 439 921" width="439px" zoomAndPan="magnify"><defs><filter height="300%" id="f1p5mb5" width="300%" x="-1" y="-1"><feGaussianBlur result="blurOut" stdDeviation="2.0"/><feColorMatrix in="blurOut" result="blurOut2" type="matrix" values="0 0 0 0 0 0 0 0 0 0 0 0 0 0 0 0 0 0 .4 0"/><feOffset dx="4.0" dy="4.0" in="blurOut2" result="blurOut3"/><feBlend in="SourceGraphic" in2="blurOut3" mode="normal"/></filter></defs><g><!--cluster Internet--><path d="M109,31 C109,28 111,26 114,26 C117,26 119,28 119,31 C119,28 121,26 124,26 C127,26 129,28 129,31 C129,28 131,26 134,26 C137,26 139,28 139,31 C139,28 141,26 144,26 C147,26 149,28 149,31 C149,28 151,26 154,26 C157,26 159,28 159,31 C159,28 161,26 164,26 C167,26 169,28 169,31 C169,28 171,26 174,26 C177,26 179,28 179,31 C179,28 181,26 184,26 C187,26 189,28 189,31 C189,28 191,26 194,26 C197,26 199,28 199,31 C199,28 201,26 204,26 C207,26 209,28 209,31 C209,28 211,26 214,26 C217,26 219,28 219,31 C219,28 221,26 224,26 C227,26 229,28 229,31 C229,28 231,26 234,26 C237,26 239,28 239,31 C239,28 241,26 244,26 C247,26 249,28 249,31 C249,28 251,26 254,26 C257,26 259,28 259,31 C259,28 261,26 264,26 C267,26 269,28 269,31 C269,28 271,26 274,26 C277,26 279,28 279,31 C279,28 281,26 284,26 C287,26 289,28 289,31 C289,28 291,26 294,26 C297,26 299,28 299,31 C299,28 301,26 304,26 C307,26 309,28 309,31 C309,28 311,26 314,26 C317,26 319,28 319,31 C322,31 324,33 324,36 C324,39 322,41 319,41 C322,41 324,43 324,46 C324,49 322,51 319,51 C322,51 324,53 324,56 C324,59 322,61 319,61 C322,61 324,63 324,66 C324,69 322,71 319,71 C322,71 324,73 324,76 C324,79 322,81 319,81 C322,81 324,83 324,86 C324,89 322,91 319,91 C322,91 324,93 324,96 C324,99 322,101 319,101 C322,101 324,103 324,106 C324,109 322,111 319,111 C322,111 324,113 324,116 C324,119 322,121 319,121 C322,121 324,123 324,126 C324,129 322,131 319,131 C322,131 324,133 324,136 C324,139 322,141 319,141 C322,141 324,143 324,146 C324,149 322,151 319,151 C322,151 324,153 324,156 C324,159 322,161 319,161 C322,161 324,163 324,166 C324,169 322,171 319,171 C322,171 324,173 324,176 C324,179 322,181 319,181 C322,181 324,183 324,186 C324,189 322,191 319,191 C322,191 324,193 324,196 C324,199 322,201 319,201 C322,201 324,203 324,206 C324,209 322,211 319,211 C322,211 324,213 324,216 C324,219 322,221 319,221 C322,221 324,223 324,226 C324,229 322,231 319,231 C322,231 324,233 324,236 C324,239 322,241 319,241 C322,241 324,243 324,246 C324,249 322,251 319,251 C322,251 324,253 324,256 C324,259 322,261 319,261 C322,261 324,263 324,266 C324,269 322,271 319,271 C322,271 324,273 324,276 C324,279 322,281 319,281 C322,281 324,283 324,286 C324,289 322,291 319,291 C322,291 324,293 324,296 C324,299 322,301 319,301 C322,301 324,303 324,306 C324,309 322,311 319,311 C322,311 324,313 324,316 C324,319 322,321 319,321 C322,321 324,323 324,326 C324,329 322,331 319,331 C322,331 324,333 324,336 C324,339 322,341 319,341 C322,341 324,343 324,346 C324,349 322,351 319,351 C322,351 324,353 324,356 C324,359 322,361 319,361 C322,361 324,363 324,366 C324,369 322,371 319,371 C322,371 324,373 324,376 C324,379 322,381 319,381 C322,381 324,383 324,386 C324,389 322,391 319,391 C322,391 324,393 324,396 C324,399 322,401 319,401 C322,401 324,403 324,406 C324,409 322,411 319,411 C322,411 324,413 324,416 C324,419 322,421 319,421 C322,421 324,423 324,426 C324,429 322,431 319,431 C322,431 324,433 324,436 C324,439 322,441 319,441 C322,441 324,443 324,446 C324,449 322,451 319,451 C322,451 324,453 324,456 C324,459 322,461 319,461 C322,461 324,463 324,466 C324,469 322,471 319,471 C322,471 324,473 324,476 C324,479 322,481 319,481 C319,484 316,486 314,486 C311,486 309,484 309,481 C309,484 306,486 304,486 C301,486 299,484 299,481 C299,484 296,486 294,486 C291,486 289,484 289,481 C289,484 286,486 284,486 C281,486 279,484 279,481 C279,484 276,486 274,486 C271,486 269,484 269,481 C269,484 266,486 264,486 C261,486 259,484 259,481 C259,484 256,486 254,486 C251,486 249,484 249,481 C249,484 246,486 244,486 C241,486 239,484 239,481 C239,484 236,486 234,486 C231,486 229,484 229,481 C229,484 226,486 224,486 C221,486 219,484 219,481 C219,484 216,486 214,486 C211,486 209,484 209,481 C209,484 206,486 204,486 C201,486 199,484 199,481 C199,484 196,486 194,486 C191,486 189,484 189,481 C189,484 186,486 184,486 C181,486 179,484 179,481 C179,484 176,486 174,486 C171,486 169,484 169,481 C169,484 166,486 164,486 C161,486 159,484 159,481 C159,484 156,486 154,486 C151,486 149,484 149,481 C149,484 146,486 144,486 C141,486 139,484 139,481 C139,484 136,486 134,486 C131,486 129,484 129,481 C129,484 126,486 124,486 C121,486 119,484 119,481 C119,484 116,486 114,486 C111,486 109,484 109,481 C106,481 104,479 104,476 C104,473 106,471 109,471 C106,471 104,469 104,466 C104,463 106,461 109,461 C106,461 104,459 104,456 C104,453 106,451 109,451 C106,451 104,449 104,446 C104,443 106,441 109,441 C106,441 104,439 104,436 C104,433 106,431 109,431 C106,431 104,429 104,426 C104,423 106,421 109,421 C106,421 104,419 104,416 C104,413 106,411 109,411 C106,411 104,409 104,406 C104,403 106,401 109,401 C106,401 104,399 104,396 C104,393 106,391 109,391 C106,391 104,389 104,386 C104,383 106,381 109,381 C106,381 104,379 104,376 C104,373 106,371 109,371 C106,371 104,369 104,366 C104,363 106,361 109,361 C106,361 104,359 104,356 C104,353 106,351 109,351 C106,351 104,349 104,346 C104,343 106,341 109,341 C106,341 104,339 104,336 C104,333 106,331 109,331 C106,331 104,329 104,326 C104,323 106,321 109,321 C106,321 104,319 104,316 C104,313 106,311 109,311 C106,311 104,309 104,306 C104,303 106,301 109,301 C106,301 104,299 104,296 C104,293 106,291 109,291 C106,291 104,289 104,286 C104,283 106,281 109,281 C106,281 104,279 104,276 C104,273 106,271 109,271 C106,271 104,269 104,266 C104,263 106,261 109,261 C106,261 104,259 104,256 C104,253 106,251 109,251 C106,251 104,249 104,246 C104,243 106,241 109,241 C106,241 104,239 104,236 C104,233 106,231 109,231 C106,231 104,229 104,226 C104,223 106,221 109,221 C106,221 104,219 104,216 C104,213 106,211 109,211 C106,211 104,209 104,206 C104,203 106,201 109,201 C106,201 104,199 104,196 C104,193 106,191 109,191 C106,191 104,189 104,186 C104,183 106,181 109,181 C106,181 104,179 104,176 C104,173 106,171 109,171 C106,171 104,169 104,166 C104,163 106,161 109,161 C106,161 104,159 104,156 C104,153 106,151 109,151 C106,151 104,149 104,146 C104,143 106,141 109,141 C106,141 104,139 104,136 C104,133 106,131 109,131 C106,131 104,129 104,126 C104,123 106,121 109,121 C106,121 104,119 104,116 C104,113 106,111 109,111 C106,111 104,109 104,106 C104,103 106,101 109,101 C106,101 104,99 104,96 C104,93 106,91 109,91 C106,91 104,89 104,86 C104,83 106,81 109,81 C106,81 104,79 104,76 C104,73 106,71 109,71 C106,71 104,69 104,66 C104,63 106,61 109,61 C106,61 104,59 104,56 C104,53 106,51 109,51 C106,51 104,49 104,46 C104,43 106,41 109,41 C106,41 104,39 104,36 C104,33 106,31 109,31 " fill="#FFFFFF" filter="url(#f1p5mb5)" style="stroke: #000000; stroke-width: 2.0;"/><text fill="#000000" font-family="sans-serif" font-size="14" font-weight="bold" lengthAdjust="spacingAndGlyphs" textLength="63" x="183.5" y="49.9951">Internet</text><!--cluster CS UCL--><rect fill="#FFFFFF" filter="url(#f1p5mb5)" height="398" style="stroke: #000000; stroke-width: 2.0;" width="410" x="22" y="516"/><path d="M89,517 L89,525.2969 L79,535.2969 L22,535.2969 " fill="none" style="stroke: #000000; stroke-width: 2.0;"/><text fill="#000000" font-family="sans-serif" font-size="14" font-weight="bold" lengthAdjust="spacingAndGlyphs" textLength="57" x="25" y="529.9951">CS UCL</text><!--cluster storage--><polygon fill="#FFFFFF" filter="url(#f1p5mb5)" points="46,802,113,802,120,824.2969,408,824.2969,408,890,46,890,46,802" style="stroke: #000000; stroke-width: 2.0;"/><line style="stroke: #000000; stroke-width: 2.0;" x1="46" x2="120" y1="824.2969" y2="824.2969"/><text fill="#000000" font-family="sans-serif" font-size="14" font-weight="bold" lengthAdjust="spacingAndGlyphs" textLength="61" x="50" y="816.9951">storage</text><!--entity Twitter API--><rect fill="#FEFECE" filter="url(#f1p5mb5)" height="36.2969" style="stroke: #A80036; stroke-width: 1.5;" width="92" x="169" y="60"/><rect fill="#FEFECE" height="5" style="stroke: #A80036; stroke-width: 1.5;" width="10" x="164" y="65"/><rect fill="#FEFECE" height="5" style="stroke: #A80036; stroke-width: 1.5;" width="10" x="164" y="86.2969"/><text fill="#000000" font-family="sans-serif" font-size="14" lengthAdjust="spacingAndGlyphs" textLength="72" x="179" y="82.9951">Twitter API</text><!--entity GET--><ellipse cx="215.25" cy="165" fill="#FEFECE" filter="url(#f1p5mb5)" rx="8" ry="8" style="stroke: #A80036; stroke-width: 2.0;"/><text fill="#000000" font-family="sans-serif" font-size="14" lengthAdjust="spacingAndGlyphs" textLength="29" x="200.75" y="186.9951">GET</text><!--entity wsclient-cloudstore-app--><rect fill="#FEFECE" filter="url(#f1p5mb5)" height="36.2969" style="stroke: #A80036; stroke-width: 1.5;" width="186" x="122" y="250"/><rect fill="#FEFECE" height="5" style="stroke: #A80036; stroke-width: 1.5;" width="10" x="117" y="255"/><rect fill="#FEFECE" height="5" style="stroke: #A80036; stroke-width: 1.5;" width="10" x="117" y="276.2969"/><text fill="#000000" font-family="sans-serif" font-size="14" lengthAdjust="spacingAndGlyphs" textLength="166" x="132" y="272.9951">wsclient-cloudstore-app</text><!--entity PUT--><ellipse cx="215" cy="355" fill="#FEFECE" filter="url(#f1p5mb5)" rx="8" ry="8" style="stroke: #A80036; stroke-width: 2.0;"/><text fill="#000000" font-family="sans-serif" font-size="14" lengthAdjust="spacingAndGlyphs" textLength="28" x="201" y="376.9951">PUT</text><!--entity UCL Office365 OneDrive--><rect fill="#FEFECE" filter="url(#f1p5mb5)" height="36.2969" style="stroke: #A80036; stroke-width: 1.5;" width="185" x="122.75" y="440"/><rect fill="#FEFECE" height="5" style="stroke: #A80036; stroke-width: 1.5;" width="10" x="117.75" y="445"/><rect fill="#FEFECE" height="5" style="stroke: #A80036; stroke-width: 1.5;" width="10" x="117.75" y="466.2969"/><text fill="#000000" font-family="sans-serif" font-size="14" lengthAdjust="spacingAndGlyphs" textLength="165" x="132.75" y="462.9951">UCL Office365 OneDrive</text><!--entity API--><ellipse cx="215.25" cy="561" fill="#FEFECE" filter="url(#f1p5mb5)" rx="8" ry="8" style="stroke: #A80036; stroke-width: 2.0;"/><text fill="#000000" font-family="sans-serif" font-size="14" lengthAdjust="spacingAndGlyphs" textLength="21" x="204.75" y="582.9951">API</text><!--entity clientapp1--><rect fill="#FEFECE" filter="url(#f1p5mb5)" height="36.2969" style="stroke: #A80036; stroke-width: 1.5;" width="92" x="42" y="646"/><rect fill="#FEFECE" height="5" style="stroke: #A80036; stroke-width: 1.5;" width="10" x="37" y="651"/><rect fill="#FEFECE" height="5" style="stroke: #A80036; stroke-width: 1.5;" width="10" x="37" y="672.2969"/><text fill="#000000" font-family="sans-serif" font-size="14" lengthAdjust="spacingAndGlyphs" textLength="72" x="52" y="668.9951">clientapp1</text><!--entity clientapp2--><rect fill="#FEFECE" filter="url(#f1p5mb5)" height="36.2969" style="stroke: #A80036; stroke-width: 1.5;" width="92" x="169" y="646"/><rect fill="#FEFECE" height="5" style="stroke: #A80036; stroke-width: 1.5;" width="10" x="164" y="651"/><rect fill="#FEFECE" height="5" style="stroke: #A80036; stroke-width: 1.5;" width="10" x="164" y="672.2969"/><text fill="#000000" font-family="sans-serif" font-size="14" lengthAdjust="spacingAndGlyphs" textLength="72" x="179" y="668.9951">clientapp2</text><!--entity clientappn--><rect fill="#FEFECE" filter="url(#f1p5mb5)" height="36.2969" style="stroke: #A80036; stroke-width: 1.5;" width="92" x="296" y="646"/><rect fill="#FEFECE" height="5" style="stroke: #A80036; stroke-width: 1.5;" width="10" x="291" y="651"/><rect fill="#FEFECE" height="5" style="stroke: #A80036; stroke-width: 1.5;" width="10" x="291" y="672.2969"/><text fill="#000000" font-family="sans-serif" font-size="14" lengthAdjust="spacingAndGlyphs" textLength="72" x="306" y="668.9951">clientappn</text><!--entity data processor--><rect fill="#FEFECE" filter="url(#f1p5mb5)" height="36.2969" style="stroke: #A80036; stroke-width: 1.5;" width="124" x="153" y="742"/><rect fill="#FEFECE" height="5" style="stroke: #A80036; stroke-width: 1.5;" width="10" x="148" y="747"/><rect fill="#FEFECE" height="5" style="stroke: #A80036; stroke-width: 1.5;" width="10" x="148" y="768.2969"/><text fill="#000000" font-family="sans-serif" font-size="14" lengthAdjust="spacingAndGlyphs" textLength="104" x="163" y="764.9951">data processor</text><!--entity objectstore--><rect fill="#FEFECE" filter="url(#f1p5mb5)" height="36.2969" style="stroke: #A80036; stroke-width: 1.5;" width="99" x="292.75" y="838"/><rect fill="#FEFECE" height="5" style="stroke: #A80036; stroke-width: 1.5;" width="10" x="287.75" y="843"/><rect fill="#FEFECE" height="5" style="stroke: #A80036; stroke-width: 1.5;" width="10" x="287.75" y="864.2969"/><text fill="#000000" font-family="sans-serif" font-size="14" lengthAdjust="spacingAndGlyphs" textLength="79" x="302.75" y="860.9951">objectstore</text><!--entity database--><rect fill="#FEFECE" filter="url(#f1p5mb5)" height="36.2969" style="stroke: #A80036; stroke-width: 1.5;" width="84" x="173" y="838"/><rect fill="#FEFECE" height="5" style="stroke: #A80036; stroke-width: 1.5;" width="10" x="168" y="843"/><rect fill="#FEFECE" height="5" style="stroke: #A80036; stroke-width: 1.5;" width="10" x="168" y="864.2969"/><text fill="#000000" font-family="sans-serif" font-size="14" lengthAdjust="spacingAndGlyphs" textLength="64" x="183" y="860.9951">database</text><!--entity filestore--><rect fill="#FEFECE" filter="url(#f1p5mb5)" height="36.2969" style="stroke: #A80036; stroke-width: 1.5;" width="75" x="62.75" y="838"/><rect fill="#FEFECE" height="5" style="stroke: #A80036; stroke-width: 1.5;" width="10" x="57.75" y="843"/><rect fill="#FEFECE" height="5" style="stroke: #A80036; stroke-width: 1.5;" width="10" x="57.75" y="864.2969"/><text fill="#000000" font-family="sans-serif" font-size="14" lengthAdjust="spacingAndGlyphs" textLength="55" x="72.75" y="860.9951">filestore</text><path d="M215,96.058 C215,113.152 215,139.266 215,155.983 " fill="none" style="stroke: #A80036; stroke-width: 1.0;"/><path d="M215,190.199 C215,205.291 215,227.926 215,244.717 " fill="none" style="stroke: #A80036; stroke-width: 1.0;"/><polygon fill="#A80036" points="215,249.725,219,240.725,215,244.725,211,240.725,215,249.725" style="stroke: #A80036; stroke-width: 1.0;"/><path d="M215,286.058 C215,301.416 215,324.055 215,340.618 " fill="none" style="stroke: #A80036; stroke-width: 1.0;"/><polygon fill="#A80036" points="215,345.983,219,336.983,215,340.983,211,336.983,215,345.983" style="stroke: #A80036; stroke-width: 1.0;"/><path d="M215,380.199 C215,396.853 215,422.69 215,439.725 " fill="none" style="stroke: #A80036; stroke-width: 1.0;"/><path d="M215,476.031 C215,495.13 215,526.126 215,546.784 " fill="none" style="stroke: #A80036; stroke-width: 1.0; stroke-dasharray: 7.0,7.0;"/><polygon fill="#A80036" points="215,551.799,219,542.799,215,546.799,211,542.799,215,551.799" style="stroke: #A80036; stroke-width: 1.0;"/><path d="M204.607,577.611 C184.347,592.447 139.125,625.562 111.328,645.917 " fill="none" style="stroke: #A80036; stroke-width: 1.0;"/><path d="M215,586.199 C215,602.853 215,628.69 215,645.725 " fill="none" style="stroke: #A80036; stroke-width: 1.0;"/><path d="M225.393,577.611 C245.653,592.447 290.875,625.562 318.672,645.917 " fill="none" style="stroke: #A80036; stroke-width: 1.0;"/><path d="M110.999,682.023 C132.532,697.961 164.73,721.792 187.588,738.711 " fill="none" style="stroke: #A80036; stroke-width: 1.0;"/><polygon fill="#A80036" points="191.743,741.786,186.8885,733.2166,187.7241,738.8114,182.1292,739.6469,191.743,741.786" style="stroke: #A80036; stroke-width: 1.0;"/><path d="M215,682.241 C215,697.479 215,719.807 215,736.458 " fill="none" style="stroke: #A80036; stroke-width: 1.0;"/><polygon fill="#A80036" points="215,741.868,219,732.868,215,736.868,211,732.868,215,741.868" style="stroke: #A80036; stroke-width: 1.0;"/><path d="M319.001,682.023 C297.468,697.961 265.27,721.792 242.412,738.711 " fill="none" style="stroke: #A80036; stroke-width: 1.0;"/><polygon fill="#A80036" points="238.257,741.786,247.8708,739.6469,242.2759,738.8114,243.1115,733.2166,238.257,741.786" style="stroke: #A80036; stroke-width: 1.0;"/><path d="M249.485,778.154 C258.064,782.907 267.07,788.33 275,794 C291.699,805.94 308.784,821.558 321.521,834.0017 " fill="none" style="stroke: #A80036; stroke-width: 1.0;"/><polygon fill="#A80036" points="325.33,837.7541,321.7257,828.5885,321.7681,834.2452,316.1114,834.2876,325.33,837.7541" style="stroke: #A80036; stroke-width: 1.0;"/><path d="M215,778.241 C215,793.479 215,815.807 215,832.4576 " fill="none" style="stroke: #A80036; stroke-width: 1.0;"/><polygon fill="#A80036" points="215,837.8683,219,828.8683,215,832.8683,211,828.8683,215,837.8683" style="stroke: #A80036; stroke-width: 1.0;"/><path d="M180.127,778.089 C171.889,782.77 163.365,788.177 156,794 C141.309,805.616 127.068,821.206 116.624,833.7177 " fill="none" style="stroke: #A80036; stroke-width: 1.0;"/><polygon fill="#A80036" points="113.232,837.8326,122.0429,833.4316,116.4121,833.9742,115.8695,828.3435,113.232,837.8326" style="stroke: #A80036; stroke-width: 1.0;"/></g></svg>