<?xml version="1.0" encoding="UTF-8" standalone="no"?><svg xmlns="http://www.w3.org/2000/svg" xmlns:xlink="http://www.w3.org/1999/xlink" contentScriptType="application/ecmascript" contentStyleType="text/css" height="639px" preserveAspectRatio="none" style="width:762px;height:639px;" version="1.1" viewBox="0 0 762 639" width="762px" zoomAndPan="magnify"><defs><filter height="300%" id="fnvmjjp" width="300%" x="-1" y="-1"><feGaussianBlur result="blurOut" stdDeviation="2.0"/><feColorMatrix in="blurOut" result="blurOut2" type="matrix" values="0 0 0 0 0 0 0 0 0 0 0 0 0 0 0 0 0 0 .4 0"/><feOffset dx="4.0" dy="4.0" in="blurOut2" result="blurOut3"/><feBlend in="SourceGraphic" in2="blurOut3" mode="normal"/></filter></defs><g><rect fill="#FFFFFF" filter="url(#fnvmjjp)" height="434.9922" style="stroke: #A80036; stroke-width: 1.0;" width="10" x="61" y="126.7266"/><rect fill="#FFFFFF" filter="url(#fnvmjjp)" height="35.1328" style="stroke: #A80036; stroke-width: 1.0;" width="10" x="66" y="160.8594"/><rect fill="#FFFFFF" filter="url(#fnvmjjp)" height="384.7266" style="stroke: #A80036; stroke-width: 1.0;" width="10" x="250" y="160.8594"/><rect fill="#FFFFFF" filter="url(#fnvmjjp)" height="209.9297" style="stroke: #A80036; stroke-width: 1.0;" width="10" x="412" y="335.6563"/><rect fill="#FFFFFF" filter="url(#fnvmjjp)" height="172.7969" style="stroke: #A80036; stroke-width: 1.0;" width="10" x="417" y="372.7891"/><rect fill="#FFFFFF" filter="url(#fnvmjjp)" height="103.5313" style="stroke: #A80036; stroke-width: 1.0;" width="10" x="536" y="406.9219"/><rect fill="#DDDDDD" height="634.3125" style="stroke: #A80036; stroke-width: 1.0;" width="597.5" x="4" y="4"/><text fill="#000000" font-family="sans-serif" font-size="13" font-weight="bold" lengthAdjust="spacingAndGlyphs" textLength="94" x="255.75" y="16.0669">wsclient-app</text><line style="stroke: #A80036; stroke-width: 1.0; stroke-dasharray: 5.0,5.0;" x1="66" x2="66" y1="87.7266" y2="570.7188"/><line style="stroke: #A80036; stroke-width: 1.0; stroke-dasharray: 5.0,5.0;" x1="254.5" x2="254.5" y1="87.7266" y2="570.7188"/><line style="stroke: #A80036; stroke-width: 1.0; stroke-dasharray: 5.0,5.0;" x1="416.5" x2="416.5" y1="87.7266" y2="570.7188"/><line style="stroke: #A80036; stroke-width: 1.0; stroke-dasharray: 5.0,5.0;" x1="540.5" x2="540.5" y1="87.7266" y2="570.7188"/><line style="stroke: #A80036; stroke-width: 1.0; stroke-dasharray: 5.0,5.0;" x1="680.5" x2="680.5" y1="87.7266" y2="570.7188"/><text fill="#000000" font-family="sans-serif" font-size="14" font-style="italic" lengthAdjust="spacingAndGlyphs" textLength="110" x="8" y="69.1328">«Singleton EJB»</text><text fill="#000000" font-family="sans-serif" font-size="14" lengthAdjust="spacingAndGlyphs" textLength="63" x="31.5" y="85.4297">CallTimer</text><ellipse cx="66" cy="39.1328" fill="#FEFECE" filter="url(#fnvmjjp)" rx="12" ry="12" style="stroke: #A80036; stroke-width: 2.0;"/><polygon fill="#A80036" points="62,27.1328,68,22.1328,66,27.1328,68,32.1328,62,27.1328" style="stroke: #A80036; stroke-width: 1.0;"/><text fill="#000000" font-family="sans-serif" font-size="14" font-style="italic" lengthAdjust="spacingAndGlyphs" textLength="110" x="8" y="583.7188">«Singleton EJB»</text><text fill="#000000" font-family="sans-serif" font-size="14" lengthAdjust="spacingAndGlyphs" textLength="63" x="31.5" y="600.0156">CallTimer</text><ellipse cx="66" cy="618.3125" fill="#FEFECE" filter="url(#fnvmjjp)" rx="12" ry="12" style="stroke: #A80036; stroke-width: 2.0;"/><polygon fill="#A80036" points="62,606.3125,68,601.3125,66,606.3125,68,611.3125,62,606.3125" style="stroke: #A80036; stroke-width: 1.0;"/><text fill="#000000" font-family="sans-serif" font-size="14" font-style="italic" lengthAdjust="spacingAndGlyphs" textLength="107" x="198.5" y="69.1328">«Stateless EJB»</text><text fill="#000000" font-family="sans-serif" font-size="14" lengthAdjust="spacingAndGlyphs" textLength="71" x="216.5" y="85.4297">TwitterCall</text><ellipse cx="255" cy="39.1328" fill="#FEFECE" filter="url(#fnvmjjp)" rx="12" ry="12" style="stroke: #A80036; stroke-width: 2.0;"/><polygon fill="#A80036" points="251,27.1328,257,22.1328,255,27.1328,257,32.1328,251,27.1328" style="stroke: #A80036; stroke-width: 1.0;"/><text fill="#000000" font-family="sans-serif" font-size="14" font-style="italic" lengthAdjust="spacingAndGlyphs" textLength="107" x="198.5" y="583.7188">«Stateless EJB»</text><text fill="#000000" font-family="sans-serif" font-size="14" lengthAdjust="spacingAndGlyphs" textLength="71" x="216.5" y="600.0156">TwitterCall</text><ellipse cx="255" cy="618.3125" fill="#FEFECE" filter="url(#fnvmjjp)" rx="12" ry="12" style="stroke: #A80036; stroke-width: 2.0;"/><polygon fill="#A80036" points="251,606.3125,257,601.3125,255,606.3125,257,611.3125,251,606.3125" style="stroke: #A80036; stroke-width: 1.0;"/><text fill="#000000" font-family="sans-serif" font-size="14" font-style="italic" lengthAdjust="spacingAndGlyphs" textLength="107" x="360.5" y="69.1328">«Stateless EJB»</text><text fill="#000000" font-family="sans-serif" font-size="14" lengthAdjust="spacingAndGlyphs" textLength="60" x="384" y="85.4297">FileStore</text><ellipse cx="417" cy="39.1328" fill="#FEFECE" filter="url(#fnvmjjp)" rx="12" ry="12" style="stroke: #A80036; stroke-width: 2.0;"/><polygon fill="#A80036" points="413,27.1328,419,22.1328,417,27.1328,419,32.1328,413,27.1328" style="stroke: #A80036; stroke-width: 1.0;"/><text fill="#000000" font-family="sans-serif" font-size="14" font-style="italic" lengthAdjust="spacingAndGlyphs" textLength="107" x="360.5" y="583.7188">«Stateless EJB»</text><text fill="#000000" font-family="sans-serif" font-size="14" lengthAdjust="spacingAndGlyphs" textLength="60" x="384" y="600.0156">FileStore</text><ellipse cx="417" cy="618.3125" fill="#FEFECE" filter="url(#fnvmjjp)" rx="12" ry="12" style="stroke: #A80036; stroke-width: 2.0;"/><polygon fill="#A80036" points="413,606.3125,419,601.3125,417,606.3125,419,611.3125,413,606.3125" style="stroke: #A80036; stroke-width: 1.0;"/><text fill="#000000" font-family="sans-serif" font-size="14" font-style="italic" lengthAdjust="spacingAndGlyphs" textLength="107" x="484.5" y="69.1328">«Stateless EJB»</text><text fill="#000000" font-family="sans-serif" font-size="14" lengthAdjust="spacingAndGlyphs" textLength="86" x="495" y="85.4297">MsGraphCall</text><ellipse cx="541" cy="39.1328" fill="#FEFECE" filter="url(#fnvmjjp)" rx="12" ry="12" style="stroke: #A80036; stroke-width: 2.0;"/><polygon fill="#A80036" points="537,27.1328,543,22.1328,541,27.1328,543,32.1328,537,27.1328" style="stroke: #A80036; stroke-width: 1.0;"/><text fill="#000000" font-family="sans-serif" font-size="14" font-style="italic" lengthAdjust="spacingAndGlyphs" textLength="107" x="484.5" y="583.7188">«Stateless EJB»</text><text fill="#000000" font-family="sans-serif" font-size="14" lengthAdjust="spacingAndGlyphs" textLength="86" x="495" y="600.0156">MsGraphCall</text><ellipse cx="541" cy="618.3125" fill="#FEFECE" filter="url(#fnvmjjp)" rx="12" ry="12" style="stroke: #A80036; stroke-width: 2.0;"/><polygon fill="#A80036" points="537,606.3125,543,601.3125,541,606.3125,543,611.3125,537,606.3125" style="stroke: #A80036; stroke-width: 1.0;"/><rect fill="#FEFECE" filter="url(#fnvmjjp)" height="46.5938" style="stroke: #A80036; stroke-width: 1.5;" width="139" x="611.5" y="32.1328"/><rect fill="#FEFECE" filter="url(#fnvmjjp)" height="46.5938" style="stroke: #A80036; stroke-width: 1.5;" width="139" x="607.5" y="36.1328"/><text fill="#000000" font-family="sans-serif" font-size="14" font-style="italic" lengthAdjust="spacingAndGlyphs" textLength="125" x="614.5" y="57.1328">«HTTP Resource»</text><text fill="#000000" font-family="sans-serif" font-size="14" lengthAdjust="spacingAndGlyphs" textLength="74" x="640" y="73.4297">Public APIs</text><rect fill="#FEFECE" filter="url(#fnvmjjp)" height="46.5938" style="stroke: #A80036; stroke-width: 1.5;" width="139" x="611.5" y="569.7188"/><rect fill="#FEFECE" filter="url(#fnvmjjp)" height="46.5938" style="stroke: #A80036; stroke-width: 1.5;" width="139" x="607.5" y="573.7188"/><text fill="#000000" font-family="sans-serif" font-size="14" font-style="italic" lengthAdjust="spacingAndGlyphs" textLength="125" x="614.5" y="594.7188">«HTTP Resource»</text><text fill="#000000" font-family="sans-serif" font-size="14" lengthAdjust="spacingAndGlyphs" textLength="74" x="640" y="611.0156">Public APIs</text><rect fill="#FFFFFF" filter="url(#fnvmjjp)" height="434.9922" style="stroke: #A80036; stroke-width: 1.0;" width="10" x="61" y="126.7266"/><rect fill="#FFFFFF" filter="url(#fnvmjjp)" height="35.1328" style="stroke: #A80036; stroke-width: 1.0;" width="10" x="66" y="160.8594"/><rect fill="#FFFFFF" filter="url(#fnvmjjp)" height="384.7266" style="stroke: #A80036; stroke-width: 1.0;" width="10" x="250" y="160.8594"/><rect fill="#FFFFFF" filter="url(#fnvmjjp)" height="209.9297" style="stroke: #A80036; stroke-width: 1.0;" width="10" x="412" y="335.6563"/><rect fill="#FFFFFF" filter="url(#fnvmjjp)" height="172.7969" style="stroke: #A80036; stroke-width: 1.0;" width="10" x="417" y="372.7891"/><rect fill="#FFFFFF" filter="url(#fnvmjjp)" height="103.5313" style="stroke: #A80036; stroke-width: 1.0;" width="10" x="536" y="406.9219"/><line style="stroke: #A80036; stroke-width: 1.0;" x1="66" x2="113" y1="113.8594" y2="113.8594"/><line style="stroke: #A80036; stroke-width: 1.0;" x1="113" x2="113" y1="113.8594" y2="126.8594"/><line style="stroke: #A80036; stroke-width: 1.0;" x1="72" x2="113" y1="126.8594" y2="126.8594"/><polygon fill="#A80036" points="82,122.8594,72,126.8594,82,130.8594,78,126.8594" style="stroke: #A80036; stroke-width: 1.0;"/><text fill="#000000" font-family="sans-serif" font-size="13" lengthAdjust="spacingAndGlyphs" textLength="175" x="78" y="108.7935">@PostConstruct start timer</text><polygon fill="#A80036" points="238,156.8594,248,160.8594,238,164.8594,242,160.8594" style="stroke: #A80036; stroke-width: 1.0;"/><line style="stroke: #A80036; stroke-width: 1.0; stroke-dasharray: 2.0,2.0;" x1="76" x2="244" y1="160.8594" y2="160.8594"/><text fill="#000000" font-family="sans-serif" font-size="13" lengthAdjust="spacingAndGlyphs" textLength="129" x="83" y="155.9263">@Timeout fire event</text><line style="stroke: #A80036; stroke-width: 1.0;" x1="76" x2="118" y1="195.125" y2="195.125"/><line style="stroke: #A80036; stroke-width: 1.0;" x1="118" x2="118" y1="195.125" y2="208.125"/><line style="stroke: #A80036; stroke-width: 1.0;" x1="71" x2="118" y1="208.125" y2="208.125"/><polygon fill="#A80036" points="81,204.125,71,208.125,81,212.125,77,208.125" style="stroke: #A80036; stroke-width: 1.0;"/><text fill="#000000" font-family="sans-serif" font-size="13" lengthAdjust="spacingAndGlyphs" textLength="97" x="83" y="190.0591">next @Timeout</text><polygon fill="#A80036" points="747.5,228.125,757.5,232.125,747.5,236.125,751.5,232.125" style="stroke: #A80036; stroke-width: 1.0;"/><line style="stroke: #A80036; stroke-width: 1.0;" x1="260" x2="753.5" y1="232.125" y2="232.125"/><text fill="#000000" font-family="sans-serif" font-size="13" lengthAdjust="spacingAndGlyphs" textLength="96" x="267" y="227.1919">&lt;&lt;Request&gt;&gt;</text><rect fill="#FFFFFF" filter="url(#fnvmjjp)" height="40.2656" style="stroke: #000000; stroke-width: 2.0;" width="149" x="604.5" y="240.2578"/><polygon fill="#EEEEEE" points="604.5,240.2578,670.5,240.2578,670.5,247.2578,660.5,257.2578,604.5,257.2578,604.5,240.2578" style="stroke: #000000; stroke-width: 2.0;"/><text fill="#000000" font-family="sans-serif" font-size="13" font-weight="bold" lengthAdjust="spacingAndGlyphs" textLength="21" x="617.5" y="254.3247">ref</text><text fill="#000000" font-family="sans-serif" font-size="13" lengthAdjust="spacingAndGlyphs" textLength="66" x="648" y="273.3247">Twitter API</text><polygon fill="#A80036" points="271,302.5234,261,306.5234,271,310.5234,267,306.5234" style="stroke: #A80036; stroke-width: 1.0;"/><line style="stroke: #A80036; stroke-width: 1.0;" x1="265" x2="758.5" y1="306.5234" y2="306.5234"/><text fill="#000000" font-family="sans-serif" font-size="13" lengthAdjust="spacingAndGlyphs" textLength="106" x="277" y="301.5903">&lt;&lt;Response&gt;&gt;</text><polygon fill="#A80036" points="400,331.6563,410,335.6563,400,339.6563,404,335.6563" style="stroke: #A80036; stroke-width: 1.0;"/><line style="stroke: #A80036; stroke-width: 1.0;" x1="260" x2="406" y1="335.6563" y2="335.6563"/><text fill="#000000" font-family="sans-serif" font-size="13" lengthAdjust="spacingAndGlyphs" textLength="133" x="267" y="330.7231">store serialised JSON</text><line style="stroke: #A80036; stroke-width: 1.0;" x1="422" x2="469" y1="359.9219" y2="359.9219"/><line style="stroke: #A80036; stroke-width: 1.0;" x1="469" x2="469" y1="359.9219" y2="372.9219"/><line style="stroke: #A80036; stroke-width: 1.0;" x1="428" x2="469" y1="372.9219" y2="372.9219"/><polygon fill="#A80036" points="438,368.9219,428,372.9219,438,376.9219,434,372.9219" style="stroke: #A80036; stroke-width: 1.0;"/><text fill="#000000" font-family="sans-serif" font-size="13" lengthAdjust="spacingAndGlyphs" textLength="88" x="434" y="354.856">create ZIP file</text><polygon fill="#A80036" points="524,402.9219,534,406.9219,524,410.9219,528,406.9219" style="stroke: #A80036; stroke-width: 1.0;"/><line style="stroke: #A80036; stroke-width: 1.0;" x1="427" x2="530" y1="406.9219" y2="406.9219"/><text fill="#000000" font-family="sans-serif" font-size="13" lengthAdjust="spacingAndGlyphs" textLength="90" x="434" y="401.9888">upload ZIP file</text><polygon fill="#A80036" points="747.5,432.0547,757.5,436.0547,747.5,440.0547,751.5,436.0547" style="stroke: #A80036; stroke-width: 1.0;"/><line style="stroke: #A80036; stroke-width: 1.0;" x1="546" x2="753.5" y1="436.0547" y2="436.0547"/><text fill="#000000" font-family="sans-serif" font-size="13" lengthAdjust="spacingAndGlyphs" textLength="96" x="553" y="431.1216">&lt;&lt;Request&gt;&gt;</text><rect fill="#FFFFFF" filter="url(#fnvmjjp)" height="40.2656" style="stroke: #000000; stroke-width: 2.0;" width="149" x="604.5" y="444.1875"/><polygon fill="#EEEEEE" points="604.5,444.1875,670.5,444.1875,670.5,451.1875,660.5,461.1875,604.5,461.1875,604.5,444.1875" style="stroke: #000000; stroke-width: 2.0;"/><text fill="#000000" font-family="sans-serif" font-size="13" font-weight="bold" lengthAdjust="spacingAndGlyphs" textLength="21" x="617.5" y="458.2544">ref</text><text fill="#000000" font-family="sans-serif" font-size="13" lengthAdjust="spacingAndGlyphs" textLength="87" x="637.5" y="477.2544">MS Graph API</text><polygon fill="#A80036" points="552,506.4531,542,510.4531,552,514.4531,548,510.4531" style="stroke: #A80036; stroke-width: 1.0;"/><line style="stroke: #A80036; stroke-width: 1.0;" x1="546" x2="758.5" y1="510.4531" y2="510.4531"/><text fill="#000000" font-family="sans-serif" font-size="13" lengthAdjust="spacingAndGlyphs" textLength="106" x="558" y="505.52">&lt;&lt;Response&gt;&gt;</text><line style="stroke: #A80036; stroke-width: 1.0;" x1="427" x2="469" y1="544.7188" y2="544.7188"/><line style="stroke: #A80036; stroke-width: 1.0;" x1="469" x2="469" y1="544.7188" y2="557.7188"/><line style="stroke: #A80036; stroke-width: 1.0;" x1="422" x2="469" y1="557.7188" y2="557.7188"/><polygon fill="#A80036" points="432,553.7188,422,557.7188,432,561.7188,428,557.7188" style="stroke: #A80036; stroke-width: 1.0;"/><text fill="#000000" font-family="sans-serif" font-size="13" lengthAdjust="spacingAndGlyphs" textLength="87" x="434" y="539.6528">delete ZIP file</text></g></svg>